<?xml version="1.0" encoding="UTF-8" standalone="no"?>
<!-- Created with Inkscape (http://www.inkscape.org/) -->

<svg
   xmlns:dc="http://purl.org/dc/elements/1.1/"
   xmlns:cc="http://creativecommons.org/ns#"
   xmlns:rdf="http://www.w3.org/1999/02/22-rdf-syntax-ns#"
   xmlns:svg="http://www.w3.org/2000/svg"
   xmlns="http://www.w3.org/2000/svg"
   xmlns:sodipodi="http://sodipodi.sourceforge.net/DTD/sodipodi-0.dtd"
   xmlns:inkscape="http://www.inkscape.org/namespaces/inkscape"
   width="1000"
   height="400"
   viewBox="0 0 264.58333 105.83333"
   version="1.1"
   id="svg8"
   inkscape:version="0.92.5 (2060ec1f9f, 2020-04-08)"
   sodipodi:docname="1.stock.svg">
  <defs
     id="defs2" />
  <sodipodi:namedview
     id="base"
     pagecolor="#ffffff"
     bordercolor="#666666"
     borderopacity="1.0"
     inkscape:pageopacity="0.0"
     inkscape:pageshadow="2"
     inkscape:zoom="0.7"
     inkscape:cx="322.1245"
     inkscape:cy="154.14991"
     inkscape:document-units="px"
     inkscape:current-layer="layer1"
     showgrid="false"
     inkscape:window-width="1920"
     inkscape:window-height="989"
     inkscape:window-x="1680"
     inkscape:window-y="38"
     inkscape:window-maximized="1"
     units="px"
     inkscape:snap-text-baseline="false" />
  <metadata
     id="metadata5">
    <rdf:RDF>
      <cc:Work
         rdf:about="">
        <dc:format>image/svg+xml</dc:format>
        <dc:type
           rdf:resource="http://purl.org/dc/dcmitype/StillImage" />
        <dc:title></dc:title>
      </cc:Work>
    </rdf:RDF>
  </metadata>
  <g
     inkscape:label="Ebene 1"
     inkscape:groupmode="layer"
     id="layer1"
     transform="translate(0,-93.880564)"
     style="display:inline">
    <path
       style="display:inline;fill:#000000;stroke-width:0.26458332"
       d="m -0.6527624,148.69655 0.066906,-45.04531 40.9822964,-0.067 c 30.06951,-0.0491 41.077848,0.0123 41.341143,0.23084 0.29741,0.24683 0.358846,4.55026 0.358846,25.13625 v 24.83843 h 5.688541 5.688542 V 140.8252 127.86062 h 34.792708 34.7927 v 13.09687 13.09688 h 20.76979 20.76979 V 140.9563 127.85822 l 28.24427,0.0673 28.24427,0.0673 0.0672,32.87448 0.0672,32.87447 H 130.25086 -0.71966843 Z M 16.215184,180.38041 V 168.34187 H 8.4099763 0.60476856 v 12.03854 12.03854 H 8.4099763 16.215184 Z m 16.933332,0 v -12.03854 h -7.805208 -7.805207 v 12.03854 12.03854 h 7.805207 7.805208 z m 21.431249,0 V 168.34187 H 44.65789 34.736016 v 12.03854 12.03854 h 9.921874 9.921875 z m 17.197915,0 v -12.03854 h -7.9375 -7.937499 v 12.03854 12.03854 h 7.937499 7.9375 z m 25.399998,0 V 168.34187 H 85.139137 73.100596 v 12.03854 12.03854 h 12.038541 12.038541 z m 51.858332,-0.66146 v -12.7 h 6.35 6.35 v -5.95312 -5.95313 h -6.35 -6.35 V 142.14812 129.18354 H 121.91622 94.796428 v 18.9177 18.91771 h 1.852083 1.852084 v 12.7 12.7 H 123.7683 149.03601 Z M 98.500595,154.58353 c 0,-0.52754 0.117903,-0.54003 4.431775,-0.46941 3.73072,0.0611 4.43177,0.13532 4.43177,0.46941 0,0.3341 -0.70105,0.40835 -4.43177,0.46942 -4.313872,0.0706 -4.431775,0.0581 -4.431775,-0.46942 z m 12.699995,0 c 0,-0.52754 0.11791,-0.54003 4.43177,-0.46941 3.73072,0.0611 4.43177,0.13532 4.43177,0.46941 0,0.3341 -0.70105,0.40835 -4.43177,0.46942 -4.31386,0.0706 -4.43177,0.0581 -4.43177,-0.46942 z m 12.96459,0.007 c 0,-0.51637 0.1585,-0.53573 4.38502,-0.53573 4.0337,0 4.3779,0.0371 4.29612,0.46302 -0.0796,0.41467 -0.53756,0.47061 -4.38503,0.53572 -4.16118,0.0704 -4.29611,0.0559 -4.29611,-0.46302 z m 12.7,0 c 0,-0.51637 0.1585,-0.53573 4.38502,-0.53573 4.0337,0 4.3779,0.0371 4.29611,0.46302 -0.0796,0.41467 -0.53755,0.47061 -4.38502,0.53572 -4.16118,0.0704 -4.29611,0.0559 -4.29611,-0.46302 z m -38.364585,-4.2399 c 0,-0.52754 0.117903,-0.54003 4.431775,-0.46942 3.73072,0.0611 4.43177,0.13533 4.43177,0.46942 0,0.3341 -0.70105,0.40835 -4.43177,0.46942 -4.313872,0.0706 -4.431775,0.0581 -4.431775,-0.46942 z m 9.524995,-4.3518 c 0,-4.73223 -0.019,-4.90862 -0.52916,-4.90862 -0.33468,0 -0.52232,-0.17017 -0.51054,-0.46302 0.0273,-0.67827 1.94942,-3.63802 2.36262,-3.63802 0.4132,0 2.33533,2.95975 2.36262,3.63802 0.0169,0.41901 0.38957,0.46341 3.92123,0.46708 3.82811,0.004 4.81337,0.17226 4.45006,0.76011 -0.12155,0.19667 -1.6338,0.29417 -4.56268,0.29417 -4.2506,0 -4.37675,-0.0157 -4.24248,-0.52917 0.0761,-0.29104 0.0332,-0.52917 -0.0955,-0.52917 -0.12861,0 -0.26629,2.17289 -0.30596,4.82865 l -0.0721,4.82865 -1.38906,0.08 -1.38907,0.08 z m 0.46122,-2.87109 c -0.0489,-1.1934 -0.0887,-0.14575 -0.0884,2.3281 2.6e-4,2.47385 0.0403,3.45027 0.0889,2.16982 0.0486,-1.28045 0.0483,-3.30452 -5.3e-4,-4.49792 z m 1.44572,1.73279 c 0.0704,-4.51192 -0.0852,-6.15157 -0.58402,-6.15157 -0.49797,0 -0.65496,1.63831 -0.58947,6.15157 0.0683,4.7044 0.0985,4.96093 0.58401,4.96093 0.48536,0 0.51606,-0.25841 0.58948,-4.96093 z m 0.40637,-1.73279 c -0.0489,-1.1934 -0.0887,-0.14575 -0.0884,2.3281 2.7e-4,2.47385 0.0403,3.45027 0.0889,2.16982 0.0486,-1.28045 0.0484,-3.30452 -5.3e-4,-4.49792 z m 0.86169,7.22289 c 0,-0.52754 0.11791,-0.54003 4.43177,-0.46942 3.73072,0.0611 4.43177,0.13533 4.43177,0.46942 0,0.3341 -0.70105,0.40835 -4.43177,0.46942 -4.31386,0.0706 -4.43177,0.0581 -4.43177,-0.46942 z m 12.96459,0 c 0,-0.50779 0.17639,-0.52917 4.36562,-0.52917 4.18924,0 4.36563,0.0214 4.36563,0.52917 0,0.50779 -0.17639,0.52917 -4.36563,0.52917 -4.18923,0 -4.36562,-0.0214 -4.36562,-0.52917 z m 9.44768,-1.14785 c -0.53956,-0.92237 -0.98102,-1.87487 -0.98102,-2.11667 0,-0.39149 -0.46372,-0.43965 -4.23333,-0.43965 -4.05694,0 -4.23333,-0.022 -4.23333,-0.52916 0,-0.50779 0.17639,-0.52917 4.36562,-0.52917 4.18924,0 4.36563,0.0214 4.36563,0.52917 0,0.29104 0.11637,0.52916 0.25861,0.52916 0.15635,0 0.28713,-1.90941 0.33073,-4.82864 l 0.0721,-4.82865 h 1.32292 1.32292 l 0.0721,4.82865 c 0.0436,2.91923 0.17438,4.82864 0.33073,4.82864 0.14224,0 0.25862,-0.23812 0.25862,-0.52916 0,-0.50779 0.17638,-0.52917 4.36562,-0.52917 4.18923,0 4.36562,0.0214 4.36562,0.52917 0,0.5064 -0.17639,0.52916 -4.10104,0.52916 -2.99769,0 -4.10104,0.0848 -4.10104,0.31534 0,0.54764 -2.12509,3.918 -2.47038,3.918 -0.18155,0 -0.77154,-0.75466 -1.3111,-1.67702 z m 1.93996,-1.59325 c -0.16986,-0.16987 -0.27514,-2.07727 -0.27514,-4.98473 0,-4.00991 -0.059,-4.70959 -0.39688,-4.70959 -0.33848,0 -0.39687,0.72026 -0.39687,4.8948 0,3.16033 -0.0959,4.89479 -0.27069,4.89479 -0.14887,0 -0.0663,0.31194 0.18353,0.6932 l 0.4542,0.69321 0.4885,-0.60327 c 0.33817,-0.41762 0.40382,-0.68794 0.21335,-0.87841 z m 1.31236,2.7411 c 0,-0.50779 0.17638,-0.52917 4.36562,-0.52917 4.18923,0 4.36562,0.0214 4.36562,0.52917 0,0.50779 -0.17639,0.52917 -4.36562,0.52917 -4.18924,0 -4.36562,-0.0214 -4.36562,-0.52917 z m -38.315466,-4.1607 c 0.08223,-0.42698 0.485519,-0.46951 4.452426,-0.46951 3.70094,0 4.362,0.0601 4.362,0.39688 0,0.33417 -0.70339,0.40835 -4.45243,0.46951 -4.143079,0.0676 -4.446133,0.04 -4.361996,-0.39688 z m 12.699996,0 c 0.0822,-0.42698 0.48552,-0.46951 4.45242,-0.46951 3.70095,0 4.362,0.0601 4.362,0.39688 0,0.33417 -0.70338,0.40835 -4.45242,0.46951 -4.14308,0.0676 -4.44613,0.04 -4.362,-0.39688 z m -12.699019,-4.5044 c 0.07944,-0.41376 0.524901,-0.47002 4.186589,-0.52882 3.98473,-0.064 5.01979,0.0915 4.64514,0.69767 -0.12152,0.19662 -1.63075,0.29417 -4.55122,0.29417 -4.018815,0 -4.362273,-0.0372 -4.280509,-0.46302 z m 25.614489,-0.0661 c 0,-0.50778 0.17639,-0.52917 4.36562,-0.52917 4.18924,0 4.36563,0.0214 4.36563,0.52917 0,0.50779 -0.17639,0.52917 -4.36563,0.52917 -4.18923,0 -4.36562,-0.0214 -4.36562,-0.52917 z m 12.7,0 c 0,-0.50778 0.17638,-0.52917 4.36562,-0.52917 4.18923,0 4.36562,0.0214 4.36562,0.52917 0,0.50779 -0.17639,0.52917 -4.36562,0.52917 -4.18924,0 -4.36562,-0.0214 -4.36562,-0.52917 z m -38.315466,-4.1607 c 0.08223,-0.42698 0.485519,-0.46951 4.452426,-0.46951 3.70094,0 4.362,0.0601 4.362,0.39688 0,0.33417 -0.70339,0.40835 -4.45243,0.46951 -4.143079,0.0676 -4.446133,0.04 -4.361996,-0.39688 z m 12.699996,0 c 0.0822,-0.42698 0.48552,-0.46951 4.45242,-0.46951 3.70095,0 4.362,0.0601 4.362,0.39688 0,0.33417 -0.70338,0.40835 -4.45242,0.46951 -4.14308,0.0676 -4.44613,0.04 -4.362,-0.39688 z m 12.91547,-0.0726 c 0,-0.50779 0.17639,-0.52917 4.36562,-0.52917 4.18924,0 4.36563,0.0214 4.36563,0.52917 0,0.50778 -0.17639,0.52916 -4.36563,0.52916 -4.18923,0 -4.36562,-0.0214 -4.36562,-0.52916 z m 12.7,0 c 0,-0.50779 0.17638,-0.52917 4.36562,-0.52917 4.18923,0 4.36562,0.0214 4.36562,0.52917 0,0.50778 -0.17639,0.52916 -4.36562,0.52916 -4.18924,0 -4.36562,-0.0214 -4.36562,-0.52916 z m -38.181885,-3.87425 c -0.100484,-0.10048 -0.1827,-0.34432 -0.1827,-0.54187 0,-0.2911 0.839925,-0.34543 4.431775,-0.28663 3.73072,0.0611 4.43177,0.13532 4.43177,0.46941 0,0.3333 -0.68072,0.40849 -4.24907,0.46934 -2.33699,0.0399 -4.331289,-0.01 -4.431775,-0.11025 z m 12.699995,0 c -0.10048,-0.10048 -0.1827,-0.34432 -0.1827,-0.54187 0,-0.2911 0.83993,-0.34543 4.43177,-0.28663 3.73072,0.0611 4.43177,0.13532 4.43177,0.46941 0,0.3333 -0.68071,0.40849 -4.24907,0.46934 -2.33698,0.0399 -4.33128,-0.01 -4.43177,-0.11025 z m 12.96474,1.6e-4 c -0.10057,-0.10057 -0.18285,-0.34161 -0.18285,-0.53563 0,-0.27979 0.90722,-0.35278 4.38502,-0.35278 4.03369,0 4.3779,0.0371 4.29613,0.46302 -0.0794,0.4135 -0.52882,0.47079 -4.20218,0.53563 -2.2623,0.0399 -4.19556,-0.01 -4.29612,-0.11024 z m 6.24539,-0.55545 c -1.04838,-0.0501 -2.83432,-0.0504 -3.96875,-8e-4 -1.13444,0.0497 -0.27668,0.0907 1.90613,0.0911 2.18281,2.6e-4 3.11099,-0.0403 2.06262,-0.0904 z m 6.45461,0.55545 c -0.10057,-0.10057 -0.18285,-0.34161 -0.18285,-0.53563 0,-0.27979 0.90722,-0.35278 4.38502,-0.35278 4.03369,0 4.3779,0.0371 4.29613,0.46302 -0.0794,0.4135 -0.52882,0.47079 -4.20218,0.53563 -2.2623,0.0399 -4.19556,-0.01 -4.29612,-0.11024 z m 6.24538,-0.55545 c -1.04837,-0.0501 -2.83431,-0.0504 -3.96875,-8e-4 -1.13443,0.0497 -0.27667,0.0907 1.90614,0.0911 2.18281,2.6e-4 3.11099,-0.0403 2.06261,-0.0904 z m 61.04051,47.42433 v -12.03854 h -26.9875 -26.9875 v 12.03854 12.03854 h 26.9875 26.9875 z m 55.5625,0 v -12.03854 h -27.11979 -27.11979 v 12.03854 12.03854 h 27.11979 27.11979 z M 42.144349,144.0002 V 120.98145 H 21.374559 0.60476856 v 23.01875 23.01875 H 21.374559 42.144349 Z m 0.727532,-11.57552 c -0.03948,-6.36654 -0.07178,-1.15755 -0.07178,11.57552 0,12.73307 0.0323,17.94206 0.07178,11.57552 0.03948,-6.36653 0.03948,-16.7845 0,-23.15104 z m 50.540546,28.70729 -0.07121,-5.88698 -19.18229,-0.13229 -19.182291,-0.13229 -0.06809,-16.99948 -0.06809,-16.99948 H 49.15386 43.467263 v 23.01875 23.01875 H 68.47545 93.483635 Z m 153.783993,0.0661 v -5.82084 h -42.06875 -42.06875 v 5.82084 5.82083 h 42.06875 42.06875 z m 12.7,0 v -5.82084 h -5.68855 -5.68854 v 5.82084 5.82083 h 5.68854 5.68855 z m 0,-19.57917 v -12.43541 h -26.9875 -26.9875 v 12.43541 12.43542 h 26.9875 26.9875 z m -179.387491,8.7313 v -3.43958 H 68.470388 56.431848 v 3.43958 3.43958 h 12.03854 12.038541 z m 81.227081,-8.86354 v -12.30312 h -5.68854 -5.68855 v 12.30312 12.30312 h 5.68855 5.68854 z m -81.227081,0.39687 v -3.70416 H 68.470388 56.431848 v 3.70416 3.70417 h 12.03854 12.038541 z m 0,-8.99583 v -3.70416 H 68.470388 56.431848 v 3.70416 3.70417 h 12.03854 12.038541 z m 0,-8.46666 v -3.43959 H 68.470388 56.431848 v 3.43959 3.43958 h 12.03854 12.038541 z M 42.871331,108.19879 c -0.04421,-2.21011 -0.08028,-0.32744 -0.08017,4.1837 1.14e-4,4.51115 0.03628,6.31942 0.08038,4.01839 0.04409,-2.30104 0.044,-5.99197 -2.04e-4,-8.20209 z m -0.726982,4.1837 v -7.27604 H 21.374559 0.60476856 v 7.27604 7.27605 H 21.374559 42.144349 Z m 38.36458,0 v -7.27604 H 61.988097 43.467265 v 7.27604 7.27605 h 18.520832 18.520832 z"
       id="ersterstock"
       inkscape:connector-curvature="0"
       inkscape:label="#path3771" />
  </g>
</svg>
