<?xml version="1.0" encoding="UTF-8" standalone="no"?>
<!-- Created with Inkscape (http://www.inkscape.org/) -->

<svg
   xmlns:dc="http://purl.org/dc/elements/1.1/"
   xmlns:cc="http://creativecommons.org/ns#"
   xmlns:rdf="http://www.w3.org/1999/02/22-rdf-syntax-ns#"
   xmlns:svg="http://www.w3.org/2000/svg"
   xmlns="http://www.w3.org/2000/svg"
   xmlns:xlink="http://www.w3.org/1999/xlink"
   xmlns:sodipodi="http://sodipodi.sourceforge.net/DTD/sodipodi-0.dtd"
   xmlns:inkscape="http://www.inkscape.org/namespaces/inkscape"
   width="1000"
   height="400"
   viewBox="0 0 264.58333 105.83333"
   version="1.1"
   id="svg8"
   inkscape:version="0.92.3 (2405546, 2018-03-11)"
   sodipodi:docname="2.stock.svg">
  <defs
     id="defs2" />
  <sodipodi:namedview
     id="base"
     pagecolor="#ffffff"
     bordercolor="#666666"
     borderopacity="1.0"
     inkscape:pageopacity="0.0"
     inkscape:pageshadow="2"
     inkscape:zoom="1.06"
     inkscape:cx="842.83249"
     inkscape:cy="155.05766"
     inkscape:document-units="px"
     inkscape:current-layer="layer1"
     showgrid="false"
     inkscape:window-width="1366"
     inkscape:window-height="711"
     inkscape:window-x="0"
     inkscape:window-y="0"
     inkscape:window-maximized="1"
     units="px"
     inkscape:snap-text-baseline="false" />
  <metadata
     id="metadata5">
    <rdf:RDF>
      <cc:Work
         rdf:about="">
        <dc:format>image/svg+xml</dc:format>
        <dc:type
           rdf:resource="http://purl.org/dc/dcmitype/StillImage" />
        <dc:title />
      </cc:Work>
    </rdf:RDF>
  </metadata>
  <g
     inkscape:label="Ebene 1"
     inkscape:groupmode="layer"
     id="layer1"
     transform="translate(0,-93.880564)">
    <path
       style="fill:#000000;stroke-width:0.26458335"
       d="m -0.40041159,181.10561 c -0.0223853,-57.05335 0.0335627,-76.92964 0.21705914,-77.11314 0.11715592,-0.11716 18.66136845,-0.18287 41.20936145,-0.14603 l 40.99635,0.067 0.06749,25.06927 0.06749,25.06927 h 5.687198 5.6872 v -12.9646 -12.96458 h 34.924993 34.925 v 13.09688 13.09687 h 20.63501 20.63501 l 0.0686,-13.03073 0.0686,-13.03073 28.20611,-0.0673 28.2061,-0.0673 0.13451,16.73608 c 0.0739,9.20485 0.0738,24.02867 0,32.94182 l -0.13494,16.20573 H 130.40296 -0.39535064 Z M 41.607254,193.2765 c -7.530703,-0.039 -19.853672,-0.039 -27.384375,0 -7.5307035,0.039 -1.369219,0.071 13.692187,0.071 15.061407,0 21.222891,-0.0319 13.692188,-0.071 z m 42.74964,8e-5 c -5.118923,-0.0401 -13.572361,-0.0402 -18.785417,-5e-5 -5.213056,0.0401 -1.024848,0.073 9.307132,0.073 10.331979,2e-5 14.597208,-0.0328 9.478285,-0.073 z m 58.076566,-5e-5 c -6.50108,-0.0394 -17.21671,-0.0394 -23.8125,-3e-5 -6.59579,0.0394 -1.27673,0.0716 11.82015,0.0717 13.09687,2e-5 18.49343,-0.0322 11.99235,-0.0716 z m 51.97067,1e-5 c -5.71169,-0.0398 -15.0581,-0.0398 -20.76979,0 -5.71169,0.0398 -1.03849,0.0724 10.38489,0.0724 11.42339,0 16.09659,-0.0326 10.3849,-0.0724 z m 52.40771,-3e-5 c -7.44683,-0.039 -19.71027,-0.0391 -27.25208,-2e-5 -7.54182,0.039 -1.44896,0.071 13.53968,0.071 14.98865,2e-5 21.15923,-0.0319 13.7124,-0.071 z M 55.16715,180.64259 V 168.60405 H 28.047358 0.92756604 v 12.03854 12.03854 H 28.047358 55.16715 Z m 51.06458,0 V 168.60405 H 81.3609 56.490067 v 12.03854 12.03854 H 81.3609 106.23173 Z m 47.09584,4.10104 v -7.9375 h -22.88646 -22.88646 v 7.9375 7.9375 h 22.88646 22.88646 z m 51.32917,-4.10104 v -12.03854 h -25.00313 -25.00313 v 12.03854 12.03854 h 25.00313 25.00313 z m 55.29791,0 v -12.03854 h -26.9875 -26.9875 v 12.03854 12.03854 h 26.9875 26.9875 z m -106.62708,-9.26041 v -4.10105 h 4.36562 4.36563 v -5.94842 -5.94842 l -6.41615,-0.0708 -6.41614,-0.0709 -0.0687,-12.89844 -0.0687,-12.89843 h -27.1172 -27.117279 v 18.91771 18.9177 h 6.349999 6.35 v 4.10105 4.10104 h 22.88646 22.88646 z M 98.695101,155.11676 c -0.41317,-0.66853 0.332119,-0.80021 4.528939,-0.80021 4.01883,0 4.36228,0.0371 4.2805,0.46302 -0.0796,0.41455 -0.53658,0.47062 -4.36542,0.53563 -2.71217,0.046 -4.33778,-0.0265 -4.444019,-0.19844 z m 12.699999,0 c -0.41317,-0.66853 0.33212,-0.80021 4.52894,-0.80021 4.01883,0 4.36228,0.0371 4.2805,0.46302 -0.0796,0.41455 -0.53658,0.47062 -4.36542,0.53563 -2.71217,0.046 -4.33778,-0.0265 -4.44402,-0.19844 z m 12.8283,-0.39694 c 0,-0.34557 0.64674,-0.40327 4.51997,-0.40327 3.49823,0 4.4951,0.0748 4.40998,0.33073 -0.0808,0.24297 -1.28015,0.34998 -4.51996,0.40327 -3.80642,0.0626 -4.40999,0.0174 -4.40999,-0.33073 z m 6.42824,-0.0703 c -1.04838,-0.0501 -2.83431,-0.0504 -3.96875,-8e-4 -1.13444,0.0497 -0.27668,0.0907 1.90614,0.0911 2.18281,2.7e-4 3.11099,-0.0403 2.06261,-0.0904 z m 6.27176,0.0703 c 0,-0.34557 0.64674,-0.40327 4.51997,-0.40327 3.49823,0 4.4951,0.0748 4.40998,0.33073 -0.0808,0.24297 -1.28015,0.34998 -4.51996,0.40327 -3.80642,0.0626 -4.40999,0.0174 -4.40999,-0.33073 z m 6.42824,-0.0703 c -1.04838,-0.0501 -2.83431,-0.0504 -3.96875,-8e-4 -1.13444,0.0497 -0.27668,0.0907 1.90614,0.0911 2.18281,2.7e-4 3.11099,-0.0403 2.06261,-0.0904 z m -44.660531,-3.77254 c -0.408551,-0.66105 0.346035,-0.79375 4.513531,-0.79375 4.17362,0 4.35001,0.0214 4.35001,0.52916 0,0.50771 -0.17639,0.52917 -4.35001,0.52917 -2.6146,0 -4.415246,-0.10555 -4.513531,-0.26458 z m 9.581291,0.10039 c -0.10372,-0.10372 -0.18858,-2.31187 -0.18858,-4.90699 0,-3.87815 -0.0663,-4.7184 -0.37211,-4.7184 -0.24336,0 -0.32363,0.18535 -0.23201,0.53571 0.13711,0.52432 0.0452,0.53416 -4.32425,0.46302 -3.759607,-0.0612 -4.464341,-0.13534 -4.464341,-0.46957 0,-0.33289 0.671793,-0.40862 4.167191,-0.46973 2.68719,-0.047 4.16718,-0.17152 4.16718,-0.35062 0,-0.49868 2.16876,-3.94215 2.48283,-3.94215 0.32493,0 2.54426,3.42243 2.54426,3.92351 0,0.20219 1.27813,0.3192 4.03156,0.36908 3.617,0.0655 4.04082,0.12132 4.12169,0.54255 0.0839,0.43688 -0.2193,0.46447 -4.36229,0.39687 -4.05278,-0.0661 -4.44912,-0.11419 -4.41567,-0.53565 0.0202,-0.25466 -0.0664,-0.46302 -0.19247,-0.46302 -0.12607,0 -0.26167,2.17289 -0.30133,4.82864 l -0.0721,4.82865 -1.20047,0.0783 c -0.66027,0.0431 -1.28534,-0.007 -1.38907,-0.11024 z m 1.6635,-5.64103 c 0,-2.67957 0.10839,-4.81387 0.24888,-4.9007 0.14311,-0.0884 0.0624,-0.47868 -0.18979,-0.91818 l -0.43868,-0.76436 -0.43911,0.70413 c -0.25654,0.41137 -0.34263,0.80863 -0.20708,0.95548 0.12762,0.13824 0.23203,2.37066 0.23203,4.96093 0,4.00991 0.059,4.70959 0.39688,4.70959 0.33803,0 0.39687,-0.70382 0.39687,-4.74689 z m 1.45521,5.54064 c -0.40855,-0.66105 0.34603,-0.79375 4.51353,-0.79375 4.17362,0 4.35001,0.0214 4.35001,0.52916 0,0.50771 -0.17639,0.52917 -4.35001,0.52917 -2.6146,0 -4.41525,-0.10555 -4.51353,-0.26458 z m 13.01499,0.0945 c -0.10048,-0.10048 -0.1827,-0.34433 -0.1827,-0.54187 0,-0.29111 0.83993,-0.34543 4.43177,-0.28663 3.73072,0.0611 4.43177,0.13532 4.43177,0.46941 0,0.3333 -0.68071,0.40849 -4.24907,0.46934 -2.33699,0.0399 -4.33128,-0.01 -4.43177,-0.11025 z m 9.36602,-1.54323 c -0.59513,-0.94232 -1.08205,-1.89482 -1.08205,-2.11666 0,-0.34462 -0.61651,-0.40336 -4.23334,-0.40336 -4.0738,0 -4.23333,-0.0202 -4.23333,-0.53557 0,-0.51927 0.13485,-0.53335 4.43177,-0.46302 4.03315,0.066 4.42847,0.11419 4.39502,0.53557 -0.0202,0.25466 0.12862,0.46302 0.33073,0.46302 0.30038,0 0.36748,-0.89632 0.36748,-4.90862 v -4.90862 l 1.38906,0.08 1.38907,0.08 0.14135,4.89479 c 0.0777,2.69213 0.16703,4.62402 0.19843,4.29308 l 0.0571,-0.60171 4.43177,0.0725 c 3.73072,0.0611 4.43177,0.13533 4.43177,0.46942 0,0.33289 -0.67179,0.40862 -4.16718,0.46974 -3.54658,0.062 -4.16719,0.13362 -4.16719,0.48082 0,0.59445 -1.92999,3.80091 -2.29139,3.80687 -0.16886,0.003 -0.79393,-0.76592 -1.38906,-1.70824 z m 1.69857,-0.60179 c 0.15581,-0.27526 0.23078,-2.52844 0.18488,-5.55625 -0.0644,-4.25071 -0.14104,-5.09323 -0.46303,-5.09323 -0.32295,0 -0.38646,0.74353 -0.38986,4.56406 -0.002,2.51023 -0.11017,4.73169 -0.23987,4.93657 -0.14251,0.2251 -0.1241,0.61773 0.0465,0.99219 0.33751,0.74076 0.51271,0.77262 0.86136,0.15666 z m 1.63541,2.14502 c -0.10048,-0.10048 -0.1827,-0.34433 -0.1827,-0.54187 0,-0.29111 0.83993,-0.34543 4.43177,-0.28663 3.73072,0.0611 4.43177,0.13532 4.43177,0.46941 0,0.3333 -0.68071,0.40849 -4.24907,0.46934 -2.33699,0.0399 -4.33128,-0.01 -4.43177,-0.11025 z m -38.414991,-4.32784 c -0.408551,-0.66104 0.346035,-0.79375 4.513531,-0.79375 4.17362,0 4.35001,0.0215 4.35001,0.52917 0,0.50771 -0.17639,0.52917 -4.35001,0.52917 -2.6146,0 -4.415246,-0.10556 -4.513531,-0.26459 z m 12.700001,0 c -0.40855,-0.66104 0.34603,-0.79375 4.51353,-0.79375 4.17362,0 4.35001,0.0215 4.35001,0.52917 0,0.50771 -0.17639,0.52917 -4.35001,0.52917 -2.6146,0 -4.41525,-0.10556 -4.51353,-0.26459 z m 12.88141,-4.68986 c 0.0822,-0.42698 0.48552,-0.46951 4.45242,-0.46951 3.70095,0 4.362,0.0601 4.362,0.39687 0,0.33418 -0.70338,0.40835 -4.45242,0.46951 -4.14308,0.0676 -4.44614,0.04 -4.362,-0.39687 z m 12.7,0 c 0.0822,-0.42698 0.48552,-0.46951 4.45242,-0.46951 3.70095,0 4.362,0.0601 4.362,0.39687 0,0.33418 -0.70338,0.40835 -4.45242,0.46951 -4.14308,0.0676 -4.44614,0.04 -4.362,-0.39687 z m -38.281411,-4.04139 c -0.408551,-0.66104 0.346035,-0.79375 4.513531,-0.79375 4.17362,0 4.35001,0.0215 4.35001,0.52917 0,0.50771 -0.17639,0.52917 -4.35001,0.52917 -2.6146,0 -4.415246,-0.10556 -4.513531,-0.26459 z m 12.700001,0 c -0.40855,-0.66104 0.34603,-0.79375 4.51353,-0.79375 4.17362,0 4.35001,0.0215 4.35001,0.52917 0,0.50771 -0.17639,0.52917 -4.35001,0.52917 -2.6146,0 -4.41525,-0.10556 -4.51353,-0.26459 z m 13.01499,0.0945 c -0.10048,-0.10049 -0.1827,-0.34433 -0.1827,-0.54188 0,-0.2911 0.83993,-0.34542 4.43177,-0.28663 3.73072,0.0611 4.43177,0.13533 4.43177,0.46942 0,0.3333 -0.68071,0.40848 -4.24907,0.46933 -2.33699,0.0399 -4.33128,-0.01 -4.43177,-0.11024 z m 12.7,0 c -0.10048,-0.10049 -0.1827,-0.34433 -0.1827,-0.54188 0,-0.2911 0.83993,-0.34542 4.43177,-0.28663 3.73072,0.0611 4.43177,0.13533 4.43177,0.46942 0,0.3333 -0.68071,0.40848 -4.24907,0.46933 -2.33699,0.0399 -4.33128,-0.01 -4.43177,-0.11024 z m -38.410999,-4.32138 c -0.41317,-0.66853 0.332119,-0.80021 4.528939,-0.80021 4.01883,0 4.36228,0.0371 4.2805,0.46302 -0.0796,0.41455 -0.53658,0.47062 -4.36542,0.53563 -2.71217,0.046 -4.33778,-0.0265 -4.444019,-0.19844 z m 12.699999,0 c -0.41317,-0.66853 0.33212,-0.80021 4.52894,-0.80021 4.01883,0 4.36228,0.0371 4.2805,0.46302 -0.0796,0.41455 -0.53658,0.47062 -4.36542,0.53563 -2.71217,0.046 -4.33778,-0.0265 -4.44402,-0.19844 z m 13.15903,0.0829 c -0.1819,-0.0734 -0.33073,-0.30213 -0.33073,-0.50828 0,-0.30868 0.79375,-0.37483 4.49792,-0.37483 3.66822,0 4.49791,0.068 4.49791,0.36857 0,0.20271 -0.18833,0.44084 -0.41851,0.52916 -0.49744,0.19089 -7.76924,0.17799 -8.24659,-0.0146 z m 6.08542,-0.5504 c -1.05503,-0.0502 -2.78144,-0.0502 -3.83646,0 -1.05503,0.0502 -0.19182,0.0913 1.91823,0.0913 2.11005,0 2.97325,-0.0411 1.91823,-0.0913 z m 6.61458,0.5504 c -0.1819,-0.0734 -0.33073,-0.30213 -0.33073,-0.50828 0,-0.30868 0.79375,-0.37483 4.49792,-0.37483 3.66822,0 4.49791,0.068 4.49791,0.36857 0,0.20271 -0.18833,0.44084 -0.41851,0.52916 -0.49744,0.19089 -7.76924,0.17799 -8.24659,-0.0146 z m 6.08542,-0.5504 c -1.05503,-0.0502 -2.78144,-0.0502 -3.83646,0 -1.05503,0.0502 -0.19182,0.0913 1.91823,0.0913 2.11005,0 2.97325,-0.0411 1.91823,-0.0913 z m -49.807816,28.11 v -5.95313 H 74.349442 55.16715 v -10.58333 -10.58333 h -5.688542 -5.688541 v 16.53646 16.53645 H 68.6609 93.531734 Z m 166.422916,0.13229 v -5.82083 h -5.55625 -5.55625 v 5.82083 5.82083 h 5.55625 5.55625 z M 42.202567,146.24676 V 125.47697 H 21.565066 0.92756604 v 20.76979 20.76979 H 21.565066 42.202567 Z m 205.316673,15.08125 v -5.68854 h -42.06875 -42.06876 v 5.68854 5.68854 h 42.06876 42.06875 z m 12.43541,-19.44688 v -12.43541 h -26.9875 -26.9875 v 12.43541 12.43542 h 26.9875 26.9875 z m -179.122916,6.61459 v -5.55625 H 68.6609 56.490067 v 5.55625 5.55625 H 68.6609 80.831734 Z m 81.227086,-6.74688 v -12.30312 h -5.82084 -5.82083 v 12.30312 12.30313 h 5.82083 5.82084 z m -81.227086,-3.83646 v -3.70416 H 68.6609 56.490067 v 3.70416 3.70417 H 68.6609 80.831734 Z m 0,-18.9177 V 105.10405 H 62.3109 43.790067 v 13.89063 13.89062 H 62.3109 80.831734 Z m -38.629167,-4.49792 v -9.39271 H 21.565066 0.92756604 v 9.39271 9.39271 H 21.565066 42.202567 Z"
       id="path34"
       inkscape:connector-curvature="0" />
    <a
       id="a56"
       xlink:href="#englisch">
      <g
         id="g54">
        <a
           id="a4656"
           xlink:href="#englisch">
          <rect
             y="129.44572"
             x="205.97966"
             height="24.870831"
             width="53.974998"
             id="rect24"
             style="fill:#000080;stroke-width:0.26458332" />
        </a>
        <text
           xml:space="preserve"
           style="font-style:normal;font-weight:normal;font-size:10.58333302px;line-height:1.25;font-family:sans-serif;letter-spacing:0px;word-spacing:0px;fill:#000000;fill-opacity:1;stroke:none;stroke-width:0.26458332"
           x="211.41705"
           y="144.80037"
           id="text28"><tspan
             sodipodi:role="line"
             id="tspan26"
             x="211.41705"
             y="144.80037"
             style="fill:#ffffff;stroke-width:0.26458332">Englisch</tspan></text>
      </g>
    </a>
    <text
       xml:space="preserve"
       style="font-style:normal;font-weight:normal;font-size:10.58333302px;line-height:1.25;font-family:sans-serif;letter-spacing:0px;word-spacing:0px;fill:#000000;fill-opacity:1;stroke:none;stroke-width:0.26458332"
       x="252.6022"
       y="141.30588"
       id="text32"><tspan
         sodipodi:role="line"
         id="tspan30"
         x="252.6022"
         y="150.66965"
         style="stroke-width:0.26458332" /></text>
    <a
       id="a3772"
       xlink:href="#latein">
      <g
         id="g3770">
        <a
           id="a4653"
           xlink:href="#latein">
          <rect
             y="168.60405"
             x="205.97966"
             height="24.077082"
             width="53.974998"
             id="rect22"
             style="fill:#000080;stroke-width:0.26458332" />
        </a>
        <text
           xml:space="preserve"
           style="font-style:normal;font-weight:normal;font-size:10.58333302px;line-height:1.25;font-family:sans-serif;letter-spacing:0px;word-spacing:0px;fill:#000000;fill-opacity:1;stroke:none;stroke-width:0.26458332"
           x="216.15959"
           y="184.23827"
           id="text36"><tspan
             sodipodi:role="line"
             id="tspan34"
             x="216.15959"
             y="184.23827"
             style="fill:#ffffff;stroke-width:0.26458332">Latein</tspan></text>
      </g>
    </a>
    <a
       id="a3785"
       xlink:href="#franzoesisch">
      <g
         id="g3783">
        <a
           id="a4650"
           xlink:href="#franzoesisch">
          <rect
             y="168.60405"
             x="154.65047"
             height="24.077082"
             width="50.00626"
             id="rect20"
             style="fill:#000080;stroke-width:0.26458332" />
        </a>
        <text
           xml:space="preserve"
           style="font-style:normal;font-weight:normal;font-size:10.58333302px;line-height:1.25;font-family:sans-serif;letter-spacing:0px;word-spacing:0px;fill:#000000;fill-opacity:1;stroke:none;stroke-width:0.26458332"
           x="156.00432"
           y="183.79893"
           id="text4548"><tspan
             sodipodi:role="line"
             id="tspan4546"
             x="156.00432"
             y="183.79893"
             style="font-size:8.11388969px;fill:#ffffff;stroke-width:0.26458332">Französisch</tspan></text>
      </g>
    </a>
    <a
       id="a3798"
       xlink:href="#italienisch">
      <g
         id="g3796">
        <a
           id="a4647"
           xlink:href="#italienisch">
          <rect
             y="176.80614"
             x="107.55465"
             height="15.875"
             width="45.772919"
             id="rect18"
             style="fill:#000080;stroke-width:0.26458332" />
        </a>
        <text
           xml:space="preserve"
           style="font-style:normal;font-weight:normal;font-size:10.58333302px;line-height:1.25;font-family:sans-serif;letter-spacing:0px;word-spacing:0px;fill:#000000;fill-opacity:1;stroke:none;stroke-width:0.26458332"
           x="109.93295"
           y="188.01198"
           id="text4548-3"><tspan
             sodipodi:role="line"
             id="tspan4546-6"
             x="109.93295"
             y="188.01198"
             style="font-size:8.11388969px;fill:#ffffff;stroke-width:0.26458332">Italienisch</tspan></text>
      </g>
    </a>
    <a
       id="a3811"
       xlink:href="#spanisch">
      <g
         id="g3809">
        <a
           id="a4644"
           xlink:href="#spanisch">
          <rect
             y="168.60405"
             x="56.490067"
             height="24.077082"
             width="49.741661"
             id="rect16"
             style="fill:#000080;stroke-width:0.26458332" />
        </a>
        <text
           xml:space="preserve"
           style="font-style:normal;font-weight:normal;font-size:10.58333302px;line-height:1.25;font-family:sans-serif;letter-spacing:0px;word-spacing:0px;fill:#000000;fill-opacity:1;stroke:none;stroke-width:0.26458332"
           x="56.96941"
           y="184.68927"
           id="text36-7"><tspan
             sodipodi:role="line"
             id="tspan34-5"
             x="56.96941"
             y="184.68927"
             style="fill:#ffffff;stroke-width:0.26458332">Spanisch</tspan></text>
      </g>
    </a>
    <a
       id="a3825"
       xlink:href="#musik-chor">
      <g
         id="g3823">
        <a
           id="a4641"
           xlink:href="#musikchor">
          <rect
             y="168.60405"
             x="0.92756599"
             height="24.077082"
             width="54.239582"
             id="rect14"
             style="fill:#000080;stroke-width:0.26458332" />
        </a>
        <text
           xml:space="preserve"
           style="font-style:normal;font-weight:normal;font-size:10.58333302px;line-height:1;font-family:sans-serif;letter-spacing:0px;word-spacing:0px;fill:#000000;fill-opacity:1;stroke:none;stroke-width:0.26458332"
           x="12.289776"
           y="179.41757"
           id="text36-3"><tspan
             sodipodi:role="line"
             id="tspan34-56"
             x="12.289776"
             y="179.41757"
             style="line-height:1;fill:#ffffff;stroke-width:0.26458332">Musik</tspan><tspan
             sodipodi:role="line"
             x="12.289776"
             y="190.0009"
             style="line-height:1;fill:#ffffff;stroke-width:0.26458332"
             id="tspan4630">Chor</tspan></text>
      </g>
    </a>
    <a
       id="a3840"
       xlink:href="#bildnerische-erziehung">
      <g
         id="g3838">
        <a
           id="a4635"
           xlink:href="#bilderziehung">
          <rect
             y="125.47697"
             x="0.92756599"
             height="41.539577"
             width="41.274998"
             id="rect12"
             style="fill:#000080;stroke-width:0.26458332" />
        </a>
        <text
           xml:space="preserve"
           style="font-style:normal;font-weight:normal;font-size:10.58333302px;line-height:1;font-family:sans-serif;letter-spacing:0px;word-spacing:0px;fill:#000000;fill-opacity:1;stroke:none;stroke-width:0.26458332"
           x="1.337025"
           y="143.00491"
           id="text36-2"><tspan
             sodipodi:role="line"
             x="1.337025"
             y="143.00491"
             style="font-size:8.11388874px;line-height:1;fill:#ffffff;stroke-width:0.26458332"
             id="tspan4624">Bildner.</tspan><tspan
             sodipodi:role="line"
             x="1.337025"
             y="153.58824"
             style="font-size:8.11388874px;line-height:1;fill:#ffffff;stroke-width:0.26458332"
             id="tspan4628">Erziehung</tspan></text>
      </g>
    </a>
    <a
       id="a3870"
       xlink:href="#text-werken">
      <g
         id="g3868">
        <a
           id="a4632"
           xlink:href="#textileswerken">
          <rect
             y="105.10405"
             x="0.92756599"
             height="18.785421"
             width="41.274998"
             id="rect8"
             style="fill:#000080;stroke-width:0.26458332" />
        </a>
        <text
           xml:space="preserve"
           style="font-style:normal;font-weight:normal;font-size:10.58333302px;line-height:1;font-family:sans-serif;letter-spacing:0px;word-spacing:0px;fill:#000000;fill-opacity:1;stroke:none;stroke-width:0.26458332"
           x="4.831522"
           y="112.49297"
           id="text36-1"><tspan
             sodipodi:role="line"
             id="tspan34-2"
             x="4.831522"
             y="112.49297"
             style="font-size:8.81944466px;line-height:1;fill:#ffffff;stroke-width:0.26458332">Textiles</tspan><tspan
             sodipodi:role="line"
             x="4.831522"
             y="123.07631"
             style="font-size:8.81944466px;line-height:1;fill:#ffffff;stroke-width:0.26458332"
             id="tspan4618">Werken</tspan></text>
      </g>
    </a>
    <a
       id="a3855"
       xlink:href="#techn-werken">
      <g
         id="g3853">
        <a
           id="a4638"
           xlink:href="#technischeswerken">
          <rect
             y="105.10405"
             x="43.790066"
             height="27.78125"
             width="37.041668"
             id="rect10"
             style="fill:#000080;stroke-width:0.26458332" />
        </a>
        <text
           xml:space="preserve"
           style="font-style:normal;font-weight:normal;font-size:10.58333302px;line-height:1;font-family:sans-serif;letter-spacing:0px;word-spacing:0px;fill:#000000;fill-opacity:1;stroke:none;stroke-width:0.26458332"
           x="46.985138"
           y="116.79619"
           id="text36-70"><tspan
             sodipodi:role="line"
             id="tspan34-93"
             x="46.985138"
             y="116.79619"
             style="font-size:8.46666648px;line-height:1;fill:#ffffff;stroke-width:0.26458332">Techn.</tspan><tspan
             sodipodi:role="line"
             x="46.985138"
             y="127.37952"
             style="font-size:8.46666648px;line-height:1;fill:#ffffff;stroke-width:0.26458332"
             id="tspan4620">Werken</tspan></text>
      </g>
    </a>
  </g>
</svg>
