<?xml version="1.0" encoding="UTF-8" standalone="no"?>
<!-- Created with Inkscape (http://www.inkscape.org/) -->

<svg
   xmlns:dc="http://purl.org/dc/elements/1.1/"
   xmlns:cc="http://creativecommons.org/ns#"
   xmlns:rdf="http://www.w3.org/1999/02/22-rdf-syntax-ns#"
   xmlns:svg="http://www.w3.org/2000/svg"
   xmlns="http://www.w3.org/2000/svg"
   xmlns:xlink="http://www.w3.org/1999/xlink"
   xmlns:sodipodi="http://sodipodi.sourceforge.net/DTD/sodipodi-0.dtd"
   xmlns:inkscape="http://www.inkscape.org/namespaces/inkscape"
   width="1000"
   height="400"
   viewBox="0 0 264.58333 105.83333"
   version="1.1"
   id="svg8"
   inkscape:version="0.92.3 (2405546, 2018-03-11)"
   sodipodi:docname="3.stock.svg">
  <defs
     id="defs2" />
  <sodipodi:namedview
     id="base"
     pagecolor="#ffffff"
     bordercolor="#666666"
     borderopacity="1.0"
     inkscape:pageopacity="0.0"
     inkscape:pageshadow="2"
     inkscape:zoom="1"
     inkscape:cx="749.86916"
     inkscape:cy="175.39065"
     inkscape:document-units="px"
     inkscape:current-layer="layer1"
     showgrid="false"
     inkscape:window-width="1366"
     inkscape:window-height="711"
     inkscape:window-x="0"
     inkscape:window-y="0"
     inkscape:window-maximized="1"
     units="px"
     inkscape:snap-text-baseline="false" />
  <metadata
     id="metadata5">
    <rdf:RDF>
      <cc:Work
         rdf:about="">
        <dc:format>image/svg+xml</dc:format>
        <dc:type
           rdf:resource="http://purl.org/dc/dcmitype/StillImage" />
        <dc:title />
      </cc:Work>
    </rdf:RDF>
  </metadata>
  <g
     inkscape:label="Ebene 1"
     inkscape:groupmode="layer"
     id="layer1"
     transform="translate(0,-93.880564)">
    <path
       style="fill:#000000;stroke-width:0.26458332"
       d="m 0.066906,148.78865 0.06691,-45.04531 40.982299,-0.067 c 32.531233,-0.0532 41.064696,0.001 41.381879,0.26458 0.353679,0.29348 0.377703,3.18087 0.209142,25.13625 l -0.190439,24.80469 h 5.838248 5.838246 V 140.91728 127.9527 h 34.792709 34.79271 v 13.09687 13.09688 h 20.76979 20.76979 V 141.04837 127.9503 l 28.24427,0.0674 28.24428,0.0673 0.0672,32.87448 0.0672,32.87448 H 130.97055 0 Z m 55.497114,31.68386 v -12.03854 h -1.59109 c -0.875099,0 -1.824628,0.14584 -2.110063,0.3241 -0.40952,0.25575 -0.587327,0.25575 -0.843076,0 -0.251119,-0.25112 -5.88314,-0.3241 -25.009729,-0.3241 H 1.324437 v 12.03854 12.03854 H 28.444229 55.56402 Z m 42.8625,0 V 168.43397 H 77.656729 56.886937 v 12.03854 12.03854 H 77.656729 98.42652 Z m 72.49584,0 v -12.03854 h -1.59109 c -0.8751,0 -1.82463,0.14584 -2.11006,0.3241 -0.40952,0.25575 -0.58733,0.25575 -0.84308,0 -0.2523,-0.2523 -7.66878,-0.3241 -33.4764,-0.3241 H 99.749436 v 12.03854 12.03854 h 35.586464 35.58646 z m 43.12708,0 v -12.03854 h -2.87802 c -2.23546,0 -2.95155,0.0886 -3.20739,0.39687 -0.18116,0.21828 -0.47882,0.39688 -0.66146,0.39688 -0.18265,0 -0.4803,-0.1786 -0.66146,-0.39688 -0.28654,-0.34526 -2.54474,-0.39687 -17.3626,-0.39687 h -17.03323 v 12.03854 12.03854 h 20.90208 20.90208 z m 46.56667,0 v -12.03854 h -7.77281 c -6.58639,0 -7.82309,0.0606 -8.10219,0.39687 -0.18116,0.21828 -0.47881,0.39688 -0.66146,0.39688 -0.18264,0 -0.4803,-0.1786 -0.66146,-0.39688 -0.28503,-0.34344 -2.17725,-0.39687 -14.05531,-0.39687 h -13.72594 v 12.03854 12.03854 h 22.48959 22.48958 z m -52.59399,-15.1474 c -0.0968,-1.5236 -0.15342,-1.65364 -0.71955,-1.65364 -0.56642,0 -0.62246,0.12927 -0.71686,1.65364 -0.074,1.19525 0.007,1.78459 0.29054,2.12601 0.37719,0.45342 0.41014,0.45342 0.82196,0 0.32778,-0.3609 0.40421,-0.86256 0.32391,-2.12601 z m 36.77709,0 c -0.0968,-1.5236 -0.15342,-1.65364 -0.71956,-1.65364 -0.56642,0 -0.62246,0.12927 -0.71686,1.65364 -0.074,1.19525 0.007,1.78459 0.29054,2.12601 0.37719,0.45342 0.41015,0.45342 0.82196,0 0.32778,-0.3609 0.40422,-0.86256 0.32392,-2.12601 z m -77.248,-0.26458 c -0.12053,-1.50964 -0.1849,-1.65365 -0.73911,-1.65365 -0.56213,0 -0.61366,0.12815 -0.69581,1.73031 -0.0648,1.26282 0.0162,1.83498 0.29975,2.11772 0.34114,0.34019 0.44202,0.33085 0.82784,-0.0767 0.34726,-0.3668 0.41169,-0.81071 0.30733,-2.11772 z m -115.740109,2.07726 c 0.363956,-0.19426 0.429366,-0.55794 0.356905,-1.98438 -0.08261,-1.62627 -0.131094,-1.74653 -0.704104,-1.74653 -0.567603,0 -0.623298,0.12839 -0.717347,1.65365 -0.05608,0.9095 0.0075,1.80247 0.141187,1.98437 0.290015,0.39447 0.347486,0.40025 0.923359,0.0929 z M 42.864019,153.746 c 0,-10.0875 -0.07948,-13.49232 -0.324104,-13.88402 -0.255748,-0.40952 -0.255748,-0.58733 0,-0.84308 0.23867,-0.23867 0.324104,-2.08865 0.324104,-7.01806 v -6.69396 H 22.094229 1.324437 v 20.90209 20.90208 h 20.769792 20.76979 z m 5.994134,12.88119 c -0.621864,-0.68715 -0.542473,-1.10364 0.210373,-1.10364 0.603588,0 0.653722,-0.10482 0.727604,-1.52136 l 0.07935,-1.52135 h 1.5875 1.5875 l 0.07935,1.52135 c 0.07388,1.41654 0.124015,1.52136 0.727604,1.52136 0.752845,0 0.832236,0.41649 0.210373,1.10364 -0.423852,0.46835 0.212153,0.48386 19.848812,0.48386 h 20.286694 l -0.07121,-5.88698 -0.07121,-5.88698 -7.897254,-0.0495 c -7.704931,-0.0482 -7.886327,-0.0374 -7.44856,0.44635 0.51848,0.57291 0.329281,1.05831 -0.41251,1.05831 -0.446098,0 -0.513551,0.19114 -0.513551,1.45521 v 1.45521 h -1.719791 -1.719792 v -1.45521 c 0,-1.37584 -0.03608,-1.45521 -0.661458,-1.45521 -0.765035,0 -0.848683,-0.41291 -0.223576,-1.10365 0.423413,-0.46786 0.134895,-0.48385 -8.73125,-0.48385 H 55.56402 v -10.58333 -10.58334 h -5.688542 -5.688541 v 1.62851 c 0,1.56091 0.02008,1.61033 0.483854,1.19063 0.687152,-0.62187 1.103646,-0.54248 1.103646,0.21037 0,0.60359 0.10482,0.65372 1.521354,0.7276 l 1.521354,0.0794 v 1.5875 1.5875 l -1.521354,0.0793 c -1.416534,0.0739 -1.521354,0.12401 -1.521354,0.7276 0,0.75285 -0.416494,0.83224 -1.103646,0.21038 -0.468114,-0.42364 -0.483854,-0.0234 -0.483854,12.30312 V 167.111 h 2.554549 c 2.458045,0 2.538008,-0.0183 2.116667,-0.48386 z m 113.597537,-5.46927 v -5.95312 h -6.35 -6.35 V 142.24022 129.27563 H 122.6359 95.516104 v 18.91771 18.91771 h 33.469796 33.46979 z m -63.235424,-6.48229 c 0,-0.52754 0.11791,-0.54003 4.431774,-0.46942 3.73072,0.0611 4.43178,0.13533 4.43178,0.46942 0,0.3341 -0.70106,0.40835 -4.43178,0.46942 -4.313864,0.0706 -4.431774,0.0581 -4.431774,-0.46942 z m 12.700004,0 c 0,-0.52754 0.11791,-0.54003 4.43177,-0.46942 3.73072,0.0611 4.43178,0.13533 4.43178,0.46942 0,0.3341 -0.70106,0.40835 -4.43178,0.46942 -4.31386,0.0706 -4.43177,0.0581 -4.43177,-0.46942 z m 12.96459,0.007 c 0,-0.51636 0.1585,-0.53572 4.38502,-0.53572 4.0337,0 4.3779,0.0371 4.29612,0.46302 -0.0796,0.41466 -0.53756,0.47061 -4.38503,0.53572 -4.16118,0.0704 -4.29611,0.0559 -4.29611,-0.46302 z m 12.7,0 c 0,-0.51636 0.1585,-0.53572 4.38502,-0.53572 4.0337,0 4.3779,0.0371 4.29612,0.46302 -0.0796,0.41466 -0.53756,0.47061 -4.38503,0.53572 -4.16118,0.0704 -4.29611,0.0559 -4.29611,-0.46302 z m -38.315474,-4.16725 c 0.0822,-0.42699 0.48552,-0.46952 4.452434,-0.46952 3.70094,0 4.362,0.0601 4.362,0.39688 0,0.33418 -0.70339,0.40835 -4.45243,0.46951 -4.143084,0.0676 -4.446134,0.04 -4.362004,-0.39687 z m 9.376764,0.0507 c -0.091,-0.23716 -0.16546,-2.44552 -0.16546,-4.90747 0,-3.80252 -0.0597,-4.47628 -0.39687,-4.47628 -0.21829,0 -0.39688,-0.14936 -0.39688,-0.33191 0,-0.59952 1.98998,-3.76913 2.36638,-3.76913 0.42416,0 2.34966,2.94639 2.37749,3.63802 0.0168,0.41901 0.38957,0.46341 3.92123,0.46707 3.82812,0.004 4.81337,0.17227 4.45006,0.76012 -0.12155,0.19667 -1.6338,0.29417 -4.56268,0.29417 -4.2506,0 -4.37675,-0.0157 -4.24248,-0.52917 0.0761,-0.29104 0.0332,-0.52917 -0.0955,-0.52917 -0.12862,0 -0.2663,2.17289 -0.30596,4.82865 l -0.0721,4.82864 -1.35589,0.0788 c -1.05809,0.0615 -1.39224,-0.0159 -1.52136,-0.35237 z m 0.56034,-7.34622 c -0.0489,-1.1934 -0.0887,-0.14576 -0.0884,2.3281 2.7e-4,2.47385 0.0403,3.45027 0.0889,2.16982 0.0486,-1.28045 0.0484,-3.30452 -5.3e-4,-4.49792 z m 1.44572,1.73278 c 0.0704,-4.51191 -0.0852,-6.15156 -0.58402,-6.15156 -0.49797,0 -0.65496,1.6383 -0.58947,6.15156 0.0683,4.70441 0.0985,4.96094 0.58401,4.96094 0.48536,0 0.51606,-0.25841 0.58948,-4.96094 z m 0.40637,-1.73278 c -0.0489,-1.1934 -0.0887,-0.14576 -0.0884,2.3281 2.6e-4,2.47385 0.0403,3.45027 0.0889,2.16982 0.0486,-1.28045 0.0484,-3.30452 -5.3e-4,-4.49792 z m 0.91081,7.29553 c 0.0822,-0.42699 0.48552,-0.46952 4.45243,-0.46952 3.70094,0 4.362,0.0601 4.362,0.39688 0,0.33418 -0.70339,0.40835 -4.45243,0.46951 -4.14308,0.0676 -4.44613,0.04 -4.362,-0.39687 z m 12.91547,-0.0726 c 0,-0.50779 0.17639,-0.52917 4.36562,-0.52917 4.18924,0 4.36563,0.0214 4.36563,0.52917 0,0.50778 -0.17639,0.52917 -4.36563,0.52917 -4.18923,0 -4.36562,-0.0214 -4.36562,-0.52917 z m 9.44768,-1.14786 c -0.53956,-0.92236 -0.98102,-1.87486 -0.98102,-2.11666 0,-0.39149 -0.46372,-0.43965 -4.23333,-0.43965 -4.05694,0 -4.23333,-0.022 -4.23333,-0.52916 0,-0.50779 0.17639,-0.52917 4.36562,-0.52917 4.18924,0 4.36563,0.0214 4.36563,0.52917 0,0.29104 0.11637,0.52916 0.25861,0.52916 0.15635,0 0.28713,-1.90942 0.33073,-4.82864 l 0.0721,-4.82865 h 1.32292 1.32291 l 0.0721,4.82865 c 0.0436,2.91922 0.17438,4.82864 0.33073,4.82864 0.14224,0 0.25862,-0.23812 0.25862,-0.52916 0,-0.50779 0.17639,-0.52917 4.36562,-0.52917 4.18924,0 4.36563,0.0214 4.36563,0.52917 0,0.5064 -0.17639,0.52916 -4.10104,0.52916 -2.9977,0 -4.10105,0.0848 -4.10105,0.31534 0,0.54764 -2.12508,3.918 -2.47038,3.918 -0.18155,0 -0.77154,-0.75466 -1.3111,-1.67703 z m 1.93996,-1.59325 c -0.16986,-0.16986 -0.27514,-2.07726 -0.27514,-4.98472 0,-3.94989 -0.0622,-4.70959 -0.38581,-4.70959 -0.32199,0 -0.39859,0.84252 -0.46302,5.09323 -0.0425,2.80128 0.0284,5.32422 0.15744,5.60654 0.22622,0.49483 0.25278,0.49092 0.73817,-0.1085 0.34856,-0.43046 0.41883,-0.70648 0.22836,-0.89696 z m 1.31236,2.74111 c 0,-0.50779 0.17639,-0.52917 4.36562,-0.52917 4.18924,0 4.36563,0.0214 4.36563,0.52917 0,0.50778 -0.17639,0.52917 -4.36563,0.52917 -4.18923,0 -4.36562,-0.0214 -4.36562,-0.52917 z m -38.315474,-4.1607 c 0.0822,-0.42698 0.48552,-0.46951 4.452434,-0.46951 3.70094,0 4.362,0.0601 4.362,0.39688 0,0.33417 -0.70339,0.40835 -4.45243,0.46951 -4.143084,0.0676 -4.446134,0.04 -4.362004,-0.39688 z m 12.700004,0 c 0.0822,-0.42698 0.48552,-0.46951 4.45243,-0.46951 3.70094,0 4.362,0.0601 4.362,0.39688 0,0.33417 -0.70339,0.40835 -4.45243,0.46951 -4.14308,0.0676 -4.44613,0.04 -4.362,-0.39688 z m -12.699024,-4.50441 c 0.0794,-0.41375 0.5249,-0.47002 4.186594,-0.52881 3.98473,-0.064 5.01979,0.0915 4.64514,0.69767 -0.12152,0.19662 -1.63075,0.29417 -4.55122,0.29417 -4.018824,0 -4.362274,-0.0372 -4.280514,-0.46303 z m 25.614494,-0.0661 c 0,-0.50779 0.17639,-0.52917 4.36562,-0.52917 4.18924,0 4.36563,0.0214 4.36563,0.52917 0,0.50778 -0.17639,0.52917 -4.36563,0.52917 -4.18923,0 -4.36562,-0.0214 -4.36562,-0.52917 z m 12.7,0 c 0,-0.50779 0.17639,-0.52917 4.36562,-0.52917 4.18924,0 4.36563,0.0214 4.36563,0.52917 0,0.50778 -0.17639,0.52917 -4.36563,0.52917 -4.18923,0 -4.36562,-0.0214 -4.36562,-0.52917 z m -38.315474,-4.16123 c 0.0822,-0.42698 0.48552,-0.46951 4.452434,-0.46951 3.70094,0 4.362,0.0601 4.362,0.39688 0,0.33417 -0.70339,0.40835 -4.45243,0.46951 -4.143084,0.0676 -4.446134,0.04 -4.362004,-0.39688 z m 12.700004,0 c 0.0822,-0.42698 0.48552,-0.46951 4.45243,-0.46951 3.70094,0 4.362,0.0601 4.362,0.39688 0,0.33417 -0.70339,0.40835 -4.45243,0.46951 -4.14308,0.0676 -4.44613,0.04 -4.362,-0.39688 z m 12.91547,-0.0726 c 0,-0.50779 0.17639,-0.52917 4.36562,-0.52917 4.18924,0 4.36563,0.0214 4.36563,0.52917 0,0.50778 -0.17639,0.52916 -4.36563,0.52916 -4.18923,0 -4.36562,-0.0214 -4.36562,-0.52916 z m 12.7,0 c 0,-0.50779 0.17639,-0.52917 4.36562,-0.52917 4.18924,0 4.36563,0.0214 4.36563,0.52917 0,0.50778 -0.17639,0.52916 -4.36563,0.52916 -4.18923,0 -4.36562,-0.0214 -4.36562,-0.52916 z M 99.402966,133.6035 c -0.10048,-0.10048 -0.1827,-0.34433 -0.1827,-0.54188 0,-0.2911 0.839934,-0.34542 4.431774,-0.28663 3.73072,0.0611 4.43178,0.13533 4.43178,0.46942 0,0.3333 -0.68072,0.40848 -4.24908,0.46934 -2.33698,0.0399 -4.331284,-0.01 -4.431774,-0.11025 z m 12.700004,0 c -0.10048,-0.10048 -0.1827,-0.34433 -0.1827,-0.54188 0,-0.2911 0.83993,-0.34542 4.43177,-0.28663 3.73072,0.0611 4.43178,0.13533 4.43178,0.46942 0,0.3333 -0.68072,0.40848 -4.24908,0.46934 -2.33698,0.0399 -4.33128,-0.01 -4.43177,-0.11025 z m 12.96474,1.5e-4 c -0.10057,-0.10057 -0.18285,-0.3416 -0.18285,-0.53563 0,-0.27979 0.90722,-0.35277 4.38502,-0.35277 4.03369,0 4.37791,0.0371 4.29613,0.46302 -0.0794,0.4135 -0.52882,0.47078 -4.20218,0.53562 -2.2623,0.0399 -4.19555,-0.01 -4.29612,-0.11024 z m 6.24539,-0.55545 c -1.04838,-0.0501 -2.83432,-0.0504 -3.96875,-7.9e-4 -1.13444,0.0497 -0.27668,0.0907 1.90613,0.0911 2.18281,2.6e-4 3.11099,-0.0403 2.06262,-0.0904 z m 6.45461,0.55545 c -0.10057,-0.10057 -0.18285,-0.3416 -0.18285,-0.53563 0,-0.27979 0.90722,-0.35277 4.38502,-0.35277 4.03369,0 4.37791,0.0371 4.29613,0.46302 -0.0794,0.4135 -0.52882,0.47078 -4.20218,0.53562 -2.2623,0.0399 -4.19555,-0.01 -4.29612,-0.11024 z m 6.24539,-0.55545 c -1.04838,-0.0501 -2.83432,-0.0504 -3.96875,-7.9e-4 -1.13444,0.0497 -0.27668,0.0907 1.90613,0.0911 2.18281,2.6e-4 3.11099,-0.0403 2.06262,-0.0904 z m 20.34759,33.74538 c -0.50507,-0.50508 -0.38554,-1.27 0.19847,-1.27 0.44254,0 0.52725,-0.21649 0.59531,-1.52136 l 0.0793,-1.52135 1.65364,-0.0788 1.65365,-0.0788 v 1.60012 c 0,1.53041 0.0288,1.60013 0.66146,1.60013 0.76503,0 0.84868,0.41291 0.22357,1.10364 -0.4238,0.4683 0.13932,0.48386 17.51542,0.48386 13.96368,0 17.88274,-0.0706 17.6358,-0.3175 -0.52095,-0.52095 -0.36157,-1.00542 0.33076,-1.00542 0.60358,0 0.65372,-0.10482 0.7276,-1.52135 l 0.0794,-1.52136 h 1.5875 1.5875 l 0.0794,1.52136 c 0.0739,1.41653 0.12401,1.52135 0.7276,1.52135 0.69233,0 0.85171,0.48447 0.33076,1.00542 -0.24695,0.24694 3.23379,0.3175 15.66333,0.3175 12.42954,0 15.91028,-0.0706 15.66333,-0.3175 -0.52094,-0.52095 -0.36157,-1.00542 0.33076,-1.00542 0.60359,0 0.65372,-0.10482 0.7276,-1.52135 l 0.0794,-1.52136 1.65365,-0.0788 1.65364,-0.0788 v 1.60013 c 0,1.53041 0.0288,1.60012 0.66146,1.60012 0.70465,0 0.86899,0.48039 0.34396,1.00542 -0.24694,0.24694 -0.15875,0.3175 0.39688,0.3175 h 0.71437 v -5.82083 -5.82084 h -0.71437 c -0.55563,0 -0.64382,0.0706 -0.39688,0.3175 0.52503,0.52504 0.36069,1.00542 -0.34396,1.00542 -0.62538,0 -0.66146,0.0794 -0.66146,1.45521 v 1.45521 h -1.71979 -1.71979 v -1.45521 c 0,-1.37584 -0.0361,-1.45521 -0.66146,-1.45521 -0.70465,0 -0.86899,-0.48038 -0.34396,-1.00542 0.24695,-0.24694 -8.33731,-0.3175 -38.62916,-0.3175 h -38.94667 v 5.82084 c 0,5.30204 0.0401,5.82083 0.44979,5.82083 0.34984,0 0.37924,-0.0706 0.13229,-0.3175 z m 96.25542,-5.50333 v -5.82084 h -5.68854 -5.68854 v 5.82084 5.82083 h 5.68854 5.68854 z m -92.41744,2.57968 c -0.0631,-0.32742 -0.11466,-0.0595 -0.11466,0.59532 0,0.65484 0.0516,0.92273 0.11466,0.59531 0.0631,-0.32742 0.0631,-0.8632 0,-1.19063 z m -91.661385,-4.60532 c -0.179131,-0.0725 -0.536319,-0.0769 -0.79375,-0.01 -0.257432,0.0671 -0.110869,0.12638 0.325694,0.13177 0.436562,0.005 0.647186,-0.0495 0.468056,-0.12197 z m 168.010425,0 c -0.17913,-0.0725 -0.53632,-0.0769 -0.79375,-0.01 -0.25743,0.0671 -0.11087,0.12638 0.32569,0.13177 0.43656,0.005 0.64719,-0.0495 0.46806,-0.12197 z M 76.773333,157.03724 c 0.06786,-1.21663 -0.01244,-1.69932 -0.330431,-1.98652 -0.731358,-0.66049 -1.217964,0.26291 -1.092038,2.07231 0.09634,1.38421 0.161181,1.52135 0.719352,1.52135 0.564401,0 0.620641,-0.12854 0.703117,-1.60714 z m 168.010427,0.009 c 0.10363,-1.84717 -0.34102,-2.66114 -1.08613,-1.98825 -0.30853,0.27864 -0.38926,0.77462 -0.32208,1.97897 0.0825,1.47938 0.13849,1.60714 0.7041,1.60714 0.56516,0 0.62165,-0.12819 0.70411,-1.59786 z m -1.36557,-3.29694 c 0.18116,-0.21828 0.47882,-0.39687 0.66146,-0.39687 0.18265,0 0.4803,0.17859 0.66146,0.39687 0.2791,0.3363 1.5158,0.39688 8.10219,0.39688 h 7.77281 v -12.43513 -12.43542 h -26.9875 -26.9875 v 12.43542 12.43542 h 18.22386 c 15.8762,0 18.26628,-0.0511 18.55322,-0.39688 z M 75.66934,153.55778 c 0.40952,-0.25575 0.587327,-0.25575 0.843076,0 0.203685,0.20368 1.140032,0.3241 2.520146,0.3241 h 2.196042 v -9.92187 -9.92188 H 69.05777 56.886937 v 9.92188 9.92187 h 9.131715 c 6.746981,0 9.267243,-0.0846 9.650688,-0.3241 z m 86.78635,-11.97902 v -12.30313 h -5.68854 -5.68854 v 12.30313 12.30312 h 5.68854 5.68854 z M 46.589827,140.12355 c 1.198856,0 1.301276,-0.0502 1.301276,-0.63796 0,-0.59525 -0.110704,-0.64481 -1.653646,-0.74036 -1.184158,-0.0733 -1.785709,0.007 -2.118809,0.28403 -0.437618,0.36355 -0.438605,0.41577 -0.0167,0.88198 0.246657,0.27256 0.614547,0.43182 0.81753,0.35393 0.202986,-0.0779 0.954638,-0.14162 1.670341,-0.14162 z m -2.999756,-13.15093 c -0.04972,-1.13444 -0.0907,-0.27668 -0.09107,1.90614 -2.64e-4,2.18281 0.04031,3.11099 0.09039,2.06261 0.05009,-1.04837 0.05039,-2.83431 7.93e-4,-3.96875 z m 37.638533,-8.14803 V 104.93397 H 62.70777 44.186937 v 13.89062 13.89063 H 62.70777 81.228604 Z m -37.637453,-9.07917 c -0.04328,-2.57354 -0.07862,-0.39291 -0.07853,4.84584 8.8e-5,5.23875 0.0355,7.34437 0.07869,4.67916 0.04319,-2.66521 0.04312,-6.95146 -1.56e-4,-9.525 z m -0.727132,4.71355 v -9.26042 H 22.094229 1.324437 v 9.26042 9.26041 h 20.769792 20.76979 z"
       id="grundriss"
       inkscape:connector-curvature="0"
       inkscape:label="#path3756" />
    <a
       xlink:href="#physiksaal"
       id="physiksaallink"
       transform="translate(52.368662,16.911292)"
       inkscape:label="#a7">
      <rect
         style="fill:#000080;stroke-width:0.26458332"
         id="physiksaalarea"
         width="41.539581"
         height="41.804169"
         x="-51.044224"
         y="108.39558"
         inkscape:label="#rect3760" />
      <text
         xml:space="preserve"
         style="font-style:normal;font-variant:normal;font-weight:normal;font-stretch:normal;font-size:10.58333302px;line-height:1.25;font-family:sans-serif;-inkscape-font-specification:'sans-serif, Normal';font-variant-ligatures:normal;font-variant-caps:normal;font-variant-numeric:normal;text-align:start;letter-spacing:0px;word-spacing:0px;writing-mode:lr-tb;text-anchor:start;fill:#000000;fill-opacity:1;stroke:none;stroke-width:0.26458332"
         x="-47.454971"
         y="130.26392"
         id="text3726"><tspan
           sodipodi:role="line"
           id="tspan3724"
           x="-47.454971"
           y="130.26392"
           style="fill:#ffffff;stroke-width:0.26458332">Physik</tspan></text>
    </a>
    <g
       id="g4559">
      <a
         inkscape:label="#a3716"
         xlink:href="#biosaal"
         id="biosaallink">
        <rect
           style="fill:#000080;stroke-width:0.26458332"
           id="biosaalarea"
           width="54.239582"
           height="24.07708"
           x="1.3244381"
           y="168.43398"
           inkscape:label="#rect3762" />
        <text
           id="text4544"
           y="185.3508"
           x="17.764881"
           style="font-style:normal;font-variant:normal;font-weight:normal;font-stretch:normal;font-size:10.58333302px;line-height:1.25;font-family:sans-serif;-inkscape-font-specification:'sans-serif, Normal';font-variant-ligatures:normal;font-variant-caps:normal;font-variant-numeric:normal;text-align:start;letter-spacing:0px;word-spacing:0px;writing-mode:lr-tb;text-anchor:start;fill:#000000;fill-opacity:1;stroke:none;stroke-width:0.26458332"
           xml:space="preserve"><tspan
             style="fill:#ffffff;stroke-width:0.26458332"
             y="185.3508"
             x="17.764881"
             id="tspan4542"
             sodipodi:role="line">Bio</tspan></text>
      </a>
    </g>
    <g
       id="g4565">
      <a
         inkscape:label="#a3721"
         xlink:href="#informationenschulleitung"
         id="infoschulleitunglink">
        <rect
           style="fill:#000080;stroke-width:0.26458332"
           id="informationenschulleitungarea"
           width="71.172913"
           height="24.07708"
           x="99.749435"
           y="168.43398"
           inkscape:label="#rect3764" />
        <text
           id="text4548"
           y="184.97284"
           x="108.85714"
           style="font-style:normal;font-variant:normal;font-weight:normal;font-stretch:normal;font-size:10.58333302px;line-height:1.25;font-family:sans-serif;-inkscape-font-specification:'sans-serif, Normal';font-variant-ligatures:normal;font-variant-caps:normal;font-variant-numeric:normal;text-align:start;letter-spacing:0px;word-spacing:0px;writing-mode:lr-tb;text-anchor:start;fill:#000000;fill-opacity:1;stroke:none;stroke-width:0.26458332"
           xml:space="preserve"><tspan
             style="fill:#ffffff;stroke-width:0.26458332"
             y="184.97284"
             x="108.85714"
             id="tspan4546"
             sodipodi:role="line">Schulinfos</tspan></text>
      </a>
    </g>
    <a
       id="a39"
       xlink:href="#peers">
      <g
         id="g37">
        <a
           id="a3728"
           xlink:href="#peers"
           xlink:title=""
           xlink:show=""
           transform="matrix(0.96341445,0,0,1.0000002,6.3016877,-4.1734921e-5)">
          <rect
             style="fill:#000080;stroke-width:0.26458332"
             y="168.43398"
             x="172.24529"
             height="24.077082"
             width="43.391663"
             id="rect23" />
        </a>
        <text
           xml:space="preserve"
           style="font-style:normal;font-weight:normal;font-size:10.58333302px;line-height:1.25;font-family:sans-serif;letter-spacing:0px;word-spacing:0px;fill:#000000;fill-opacity:1;stroke:none;stroke-width:0.26458332"
           x="193.28905"
           y="184.67046"
           id="text3736"><tspan
             sodipodi:role="line"
             id="tspan3734"
             x="193.28905"
             y="184.67046"
             style="text-align:center;text-anchor:middle;fill:#ffffff;stroke-width:0.26458332">Peers</tspan></text>
      </g>
    </a>
    <text
       xml:space="preserve"
       style="font-style:normal;font-weight:normal;font-size:10.58333302px;line-height:1000;font-family:sans-serif;letter-spacing:0px;word-spacing:0px;fill:#000000;fill-opacity:1;stroke:none;stroke-width:0.26458332"
       x="269.58167"
       y="178.54723"
       id="text3745"><tspan
         sodipodi:role="line"
         x="269.58167"
         y="5472.9629"
         style="font-size:7.05555534px;line-height:1000;text-align:end;text-anchor:end;fill:#ffffff;stroke-width:0.26458332"
         id="tspan3747" /></text>
    <a
       id="a42"
       xlink:href="#absolventenverein">
      <g
         id="g40">
        <a
           id="a3740"
           xlink:href="#absolventenverein">
          <rect
             y="168.43398"
             x="215.63695"
             height="24.077074"
             width="44.979164"
             id="rect3738"
             style="fill:#000080;stroke-width:0.26458332" />
        </a>
        <text
           xml:space="preserve"
           style="font-style:normal;font-weight:normal;font-size:10.58333302px;line-height:1;font-family:sans-serif;letter-spacing:0px;word-spacing:0px;fill:#000000;fill-opacity:1;stroke:none;stroke-width:0.26458332"
           x="216.58035"
           y="179.30318"
           id="text3753"><tspan
             sodipodi:role="line"
             x="216.58035"
             y="179.30318"
             style="font-size:9.17222214px;line-height:1;fill:#ffffff;stroke-width:0.26458332"
             id="tspan3755">Absolven</tspan><tspan
             sodipodi:role="line"
             x="216.58035"
             y="189.88651"
             style="font-size:9.17222214px;line-height:1;fill:#ffffff;stroke-width:0.26458332"
             id="tspan3759">tenverein</tspan></text>
      </g>
    </a>
    <a
       id="a3768"
       xlink:href="#legasthenie">
      <g
         id="g3766">
        <rect
           style="fill:#000080;stroke-width:0.26458332"
           id="rect3753"
           width="24.341667"
           height="19.84375"
           x="56.886936"
           y="134.03813" />
        <text
           xml:space="preserve"
           style="font-style:normal;font-weight:normal;font-size:7.05555534px;line-height:1;font-family:sans-serif;letter-spacing:0px;word-spacing:0px;fill:#000000;fill-opacity:1;stroke:none;stroke-width:0.26458332"
           x="68.839203"
           y="142.56389"
           id="text3758"><tspan
             sodipodi:role="line"
             id="tspan3756"
             x="68.839203"
             y="142.56389"
             style="font-size:7.05555534px;line-height:1;text-align:center;text-anchor:middle;fill:#ffffff;stroke-width:0.26458332">Legas-</tspan><tspan
             sodipodi:role="line"
             x="68.839203"
             y="149.61945"
             style="font-size:7.05555534px;line-height:1;text-align:center;text-anchor:middle;fill:#ffffff;stroke-width:0.26458332"
             id="tspan3760">thenie</tspan></text>
      </g>
    </a>
    <a
       id="a3789"
       xlink:href="#elternverein">
      <g
         id="g3787">
        <rect
           style="fill:#000080;stroke-width:0.26458332"
           id="rect3775"
           width="53.974998"
           height="24.87055"
           x="206.64111"
           y="129.27563" />
        <text
           xml:space="preserve"
           style="font-style:normal;font-weight:normal;font-size:10.58333302px;line-height:1;font-family:sans-serif;text-align:center;letter-spacing:0px;word-spacing:0px;text-anchor:middle;fill:#ffffff;fill-opacity:1;stroke:none;stroke-width:0.26458332"
           x="233.94077"
           y="139.65347"
           id="text3779"><tspan
             sodipodi:role="line"
             id="tspan3777"
             x="233.94077"
             y="139.65347"
             style="line-height:1;text-align:center;text-anchor:middle;fill:#ffffff;stroke-width:0.26458332">Eltern</tspan><tspan
             sodipodi:role="line"
             x="233.94077"
             y="150.2368"
             style="line-height:1;text-align:center;text-anchor:middle;fill:#ffffff;stroke-width:0.26458332"
             id="tspan3781">verein</tspan></text>
      </g>
    </a>
  </g>
</svg>
