<?xml version="1.0" encoding="UTF-8" standalone="no"?>
<!-- Created with Inkscape (http://www.inkscape.org/) -->

<svg
   xmlns:dc="http://purl.org/dc/elements/1.1/"
   xmlns:cc="http://creativecommons.org/ns#"
   xmlns:rdf="http://www.w3.org/1999/02/22-rdf-syntax-ns#"
   xmlns:svg="http://www.w3.org/2000/svg"
   xmlns="http://www.w3.org/2000/svg"
   xmlns:xlink="http://www.w3.org/1999/xlink"
   xmlns:sodipodi="http://sodipodi.sourceforge.net/DTD/sodipodi-0.dtd"
   xmlns:inkscape="http://www.inkscape.org/namespaces/inkscape"
   width="1000"
   height="400"
   viewBox="0 0 264.58333 105.83333"
   version="1.1"
   id="svg8"
   inkscape:version="0.92.3 (2405546, 2018-03-11)"
   sodipodi:docname="e.stock.svg">
  <defs
     id="defs2" />
  <sodipodi:namedview
     id="base"
     pagecolor="#ffffff"
     bordercolor="#666666"
     borderopacity="1.0"
     inkscape:pageopacity="0.0"
     inkscape:pageshadow="2"
     inkscape:zoom="1.4142136"
     inkscape:cx="275.43744"
     inkscape:cy="222.32166"
     inkscape:document-units="px"
     inkscape:current-layer="layer1"
     showgrid="false"
     inkscape:window-width="1366"
     inkscape:window-height="711"
     inkscape:window-x="0"
     inkscape:window-y="0"
     inkscape:window-maximized="1"
     units="px"
     inkscape:snap-text-baseline="false" />
  <metadata
     id="metadata5">
    <rdf:RDF>
      <cc:Work
         rdf:about="">
        <dc:format>image/svg+xml</dc:format>
        <dc:type
           rdf:resource="http://purl.org/dc/dcmitype/StillImage" />
        <dc:title />
      </cc:Work>
    </rdf:RDF>
  </metadata>
  <g
     inkscape:label="Ebene 1"
     inkscape:groupmode="layer"
     id="layer1"
     transform="translate(0,-93.880564)"
     style="display:inline">
    <path
       style="fill:#000000;stroke-width:0.26458332"
       d="m -0.31259611,148.39418 0.066906,-45.04531 40.98230011,-0.067 c 32.531233,-0.0532 41.064696,0.001 41.381879,0.26459 0.353679,0.29348 0.377703,3.18086 0.209142,25.13625 l -0.190439,24.80469 h 5.838248 5.838246 v -12.96459 -12.96458 h 34.792704 34.79271 v 13.09688 13.09687 h 20.7698 20.76979 v -13.09807 -13.09807 l 28.24427,0.0673 28.24427,0.0673 0.0672,32.87448 0.0672,32.87448 H 130.59104 -0.37950236 Z M 50.951186,180.07803 V 168.03949 H 25.94806 0.94493489 v 12.03854 12.03854 H 25.94806 50.951186 Z m 17.197916,0 v -12.03854 h -7.9375 -7.9375 v 12.03854 12.03854 h 7.9375 7.9375 z m -11.723399,9.48736 c -0.100568,-0.10056 -0.182851,-0.3416 -0.182851,-0.53563 0,-0.27978 0.907227,-0.35277 4.385025,-0.35277 4.033692,0 4.377904,0.0371 4.296129,0.46302 -0.07939,0.4135 -0.52882,0.47078 -4.202176,0.53563 -2.262301,0.0399 -4.195559,-0.01 -4.296127,-0.11025 z m 6.245389,-0.55545 c -1.048377,-0.0501 -2.834314,-0.0504 -3.96875,-7.9e-4 -1.134438,0.0497 -0.276677,0.0907 1.906135,0.0911 2.182813,2.6e-4 3.11099,-0.0403 2.062615,-0.0904 z m -6.245389,-3.94246 c -0.100568,-0.10057 -0.182851,-0.3416 -0.182851,-0.53563 0,-0.27979 0.907227,-0.35278 4.385025,-0.35278 4.033692,0 4.377904,0.0371 4.296129,0.46302 -0.07939,0.4135 -0.52882,0.47079 -4.202176,0.53563 -2.262301,0.0399 -4.195559,-0.01 -4.296127,-0.11024 z m 6.245389,-0.55545 c -1.048377,-0.0501 -2.834314,-0.0504 -3.96875,-8e-4 -1.134438,0.0497 -0.276677,0.0907 1.906135,0.0911 2.182813,2.7e-4 3.11099,-0.0403 2.062615,-0.0904 z m -6.377871,-4.50015 c 0.08049,-0.41792 0.500772,-0.46302 4.315256,-0.46302 3.814485,0 4.23477,0.0451 4.315257,0.46302 0.08204,0.426 -0.262986,0.46302 -4.315257,0.46302 -4.052271,0 -4.397295,-0.037 -4.315256,-0.46302 z m 6.377871,0.002 c -1.048377,-0.0501 -2.834314,-0.0504 -3.96875,-7.9e-4 -1.134438,0.0497 -0.276677,0.0907 1.906135,0.0911 2.182813,2.7e-4 3.11099,-0.0403 2.062615,-0.0904 z m -6.377871,-4.50003 c 0.08049,-0.41793 0.500772,-0.46302 4.315256,-0.46302 3.814485,0 4.23477,0.0451 4.315257,0.46302 0.08204,0.426 -0.262986,0.46302 -4.315257,0.46302 -4.052271,0 -4.397295,-0.037 -4.315256,-0.46302 z m 6.377871,0.002 c -1.048377,-0.0501 -2.834314,-0.0504 -3.96875,-7.9e-4 -1.134438,0.0497 -0.276677,0.0907 1.906135,0.0911 2.182813,2.6e-4 3.11099,-0.0403 2.062615,-0.0904 z m -6.377871,-4.50003 c 0.08049,-0.41792 0.500772,-0.46302 4.315256,-0.46302 3.814485,0 4.23477,0.0451 4.315257,0.46302 0.08204,0.426 -0.262986,0.46302 -4.315257,0.46302 -4.052271,0 -4.397295,-0.037 -4.315256,-0.46302 z m 6.377871,0.002 c -1.048377,-0.0501 -2.834314,-0.0504 -3.96875,-8e-4 -1.134438,0.0497 -0.276677,0.0907 1.906135,0.0911 2.182813,2.7e-4 3.11099,-0.0403 2.062615,-0.0904 z m 43.842598,9.05986 V 168.03949 H 87.992853 69.472019 v 12.03854 12.03854 h 18.520834 18.520837 z m 38.36458,0 V 168.03949 H 126.35744 107.8366 v 12.03854 12.03854 h 18.52084 18.52083 z m 17.19792,0 v -12.03854 h -7.80521 -7.80521 v 12.03854 12.03854 h 7.80521 7.80521 z m 50.53541,0 V 168.03949 H 188.00535 163.3991 v 12.03854 12.03854 h 24.60625 24.60625 z m 47.625,0 v -12.03854 h -23.15104 -23.15104 v 12.03854 12.03854 h 23.15104 23.15104 z M 42.484519,145.81449 V 124.91241 H 21.714727 0.94493489 v 20.90208 20.90208 H 21.714727 42.484519 Z m 51.268083,15.0151 -0.07121,-5.88698 H 74.499102 55.316811 l -0.06915,-10.64947 -0.06915,-10.64948 h -5.685538 -5.685542 v 16.53645 16.53646 h 25.008187 25.008187 z m 68.323588,-0.0661 v -5.95313 h -6.35 -6.35 V 141.84578 128.8812 h -27.1198 -27.119787 v 18.9177 18.91771 h 33.469787 33.4698 z M 98.840769,154.2812 c 0,-0.52755 0.117904,-0.54003 4.431771,-0.46942 3.73072,0.0611 4.43177,0.13532 4.43177,0.46942 0,0.33409 -0.70105,0.40835 -4.43177,0.46941 -4.313867,0.0706 -4.431771,0.0581 -4.431771,-0.46941 z m 12.700001,0 c 0,-0.52755 0.1179,-0.54003 4.43177,-0.46942 3.73072,0.0611 4.43177,0.13532 4.43177,0.46942 0,0.33409 -0.70105,0.40835 -4.43177,0.46941 -4.31387,0.0706 -4.43177,0.0581 -4.43177,-0.46941 z m 12.96458,0.007 c 0,-0.51637 0.15851,-0.53573 4.38503,-0.53573 4.03369,0 4.3779,0.0371 4.29611,0.46302 -0.0796,0.41467 -0.53755,0.47061 -4.38502,0.53572 -4.16118,0.0704 -4.29612,0.0559 -4.29612,-0.46302 z m 12.7,0 c 0,-0.51637 0.15851,-0.53573 4.38503,-0.53573 4.03369,0 4.3779,0.0371 4.29611,0.46302 -0.0796,0.41467 -0.53755,0.47061 -4.38502,0.53572 -4.16118,0.0704 -4.29612,0.0559 -4.29612,-0.46302 z m -38.364581,-4.2399 c 0,-0.52754 0.117904,-0.54003 4.431771,-0.46942 3.73072,0.0611 4.43177,0.13533 4.43177,0.46942 0,0.3341 -0.70105,0.40835 -4.43177,0.46942 -4.313867,0.0706 -4.431771,0.0581 -4.431771,-0.46942 z m 9.425881,0.12333 c -0.091,-0.23715 -0.16546,-2.44551 -0.16546,-4.90747 0,-3.80252 -0.0597,-4.47627 -0.39688,-4.47627 -0.21828,0 -0.38849,-0.20836 -0.37824,-0.46302 0.0273,-0.67828 1.94942,-3.63802 2.36262,-3.63802 0.41319,0 2.33532,2.95974 2.36261,3.63802 0.0169,0.41901 0.38957,0.4634 3.92124,0.46707 3.82811,0.004 4.81337,0.17227 4.45005,0.76012 -0.12154,0.19666 -1.6338,0.29416 -4.56267,0.29416 -4.2506,0 -4.37675,-0.0157 -4.24249,-0.52917 0.0761,-0.29104 0.0332,-0.52916 -0.0955,-0.52916 -0.12862,0 -0.2663,2.17289 -0.30596,4.82864 l -0.0721,4.82865 -1.35589,0.0788 c -1.05808,0.0615 -1.39223,-0.0159 -1.52135,-0.35237 z m 0.56034,-7.34621 c -0.0489,-1.19341 -0.0887,-0.14576 -0.0884,2.32809 2.6e-4,2.47386 0.0403,3.45027 0.0889,2.16982 0.0486,-1.28045 0.0484,-3.30451 -5.3e-4,-4.49791 z m 1.44571,1.73278 c 0.0704,-4.51192 -0.0852,-6.15156 -0.58401,-6.15156 -0.49798,0 -0.65497,1.6383 -0.58948,6.15156 0.0683,4.70441 0.0985,4.96094 0.58402,4.96094 0.48535,0 0.51606,-0.25841 0.58947,-4.96094 z m 0.40637,-1.73278 c -0.0489,-1.19341 -0.0887,-0.14576 -0.0884,2.32809 2.6e-4,2.47386 0.0403,3.45027 0.0889,2.16982 0.0486,-1.28045 0.0484,-3.30451 -5.2e-4,-4.49791 z m 0.91082,7.29552 c 0.0822,-0.42699 0.48552,-0.46951 4.45242,-0.46951 3.70095,0 4.362,0.0601 4.362,0.39687 0,0.33418 -0.70338,0.40835 -4.45242,0.46951 -4.14308,0.0676 -4.44614,0.04 -4.362,-0.39687 z m 12.91546,-0.0726 c 0,-0.50778 0.17639,-0.52916 4.36563,-0.52916 4.18923,0 4.36562,0.0214 4.36562,0.52916 0,0.50779 -0.17639,0.52917 -4.36562,0.52917 -4.18924,0 -4.36563,-0.0214 -4.36563,-0.52917 z m 9.44769,-1.14785 c -0.53956,-0.92236 -0.98102,-1.87486 -0.98102,-2.11667 0,-0.39148 -0.46372,-0.43964 -4.23333,-0.43964 -4.05695,0 -4.23334,-0.022 -4.23334,-0.52917 0,-0.50779 0.17639,-0.52917 4.36563,-0.52917 4.18923,0 4.36562,0.0214 4.36562,0.52917 0,0.29104 0.11638,0.52917 0.25862,0.52917 0.15635,0 0.28713,-1.90942 0.33073,-4.82865 l 0.0721,-4.82864 h 1.32292 1.32291 l 0.0721,4.82864 c 0.0436,2.91923 0.17438,4.82865 0.33073,4.82865 0.14224,0 0.25861,-0.23813 0.25861,-0.52917 0,-0.50779 0.17639,-0.52917 4.36563,-0.52917 4.18923,0 4.36562,0.0214 4.36562,0.52917 0,0.50641 -0.17639,0.52917 -4.10104,0.52917 -2.9977,0 -4.10104,0.0848 -4.10104,0.31533 0,0.54764 -2.12509,3.918 -2.47038,3.918 -0.18155,0 -0.77155,-0.75466 -1.3111,-1.67702 z m 1.9216,-1.61161 c -0.14676,-0.14676 -0.25679,-2.27478 -0.25679,-4.96637 0,-4.00991 -0.059,-4.70958 -0.39687,-4.70958 -0.33848,0 -0.39688,0.72025 -0.39688,4.89479 0,2.92763 -0.10139,4.89479 -0.25227,4.89479 -0.13876,0 -0.0522,0.34864 0.19237,0.77476 l 0.44465,0.77476 0.46129,-0.70318 c 0.29818,-0.45456 0.37049,-0.79398 0.2045,-0.95997 z m 1.33071,2.75946 c 0,-0.50778 0.17639,-0.52916 4.36563,-0.52916 4.18923,0 4.36562,0.0214 4.36562,0.52916 0,0.50779 -0.17639,0.52917 -4.36562,0.52917 -4.18924,0 -4.36563,-0.0214 -4.36563,-0.52917 z m -38.315461,-4.16069 c 0.08223,-0.42699 0.485519,-0.46952 4.452421,-0.46952 3.70095,0 4.362,0.0601 4.362,0.39688 0,0.33418 -0.70338,0.40835 -4.45242,0.46951 -4.143084,0.0676 -4.446138,0.04 -4.362001,-0.39687 z m 12.700001,0 c 0.0822,-0.42699 0.48552,-0.46952 4.45242,-0.46952 3.70095,0 4.362,0.0601 4.362,0.39688 0,0.33418 -0.70338,0.40835 -4.45242,0.46951 -4.14308,0.0676 -4.44614,0.04 -4.362,-0.39687 z m -12.699024,-4.50441 c 0.07944,-0.41376 0.524901,-0.47002 4.186594,-0.52882 3.98472,-0.064 5.01978,0.0915 4.64513,0.69768 -0.12151,0.19661 -1.63075,0.29416 -4.55121,0.29416 -4.01882,0 -4.362279,-0.0371 -4.280514,-0.46302 z m 25.614484,-0.0661 c 0,-0.50778 0.17639,-0.52916 4.36563,-0.52916 4.18923,0 4.36562,0.0214 4.36562,0.52916 0,0.50779 -0.17639,0.52917 -4.36562,0.52917 -4.18924,0 -4.36563,-0.0214 -4.36563,-0.52917 z m 12.7,0 c 0,-0.50778 0.17639,-0.52916 4.36563,-0.52916 4.18923,0 4.36562,0.0214 4.36562,0.52916 0,0.50779 -0.17639,0.52917 -4.36562,0.52917 -4.18924,0 -4.36563,-0.0214 -4.36563,-0.52917 z m -38.315461,-4.16069 c 0.08223,-0.42699 0.485519,-0.46951 4.452421,-0.46951 3.70095,0 4.362,0.0601 4.362,0.39687 0,0.33418 -0.70338,0.40835 -4.45242,0.46951 -4.143084,0.0676 -4.446138,0.04 -4.362001,-0.39687 z m 12.700001,0 c 0.0822,-0.42699 0.48552,-0.46951 4.45242,-0.46951 3.70095,0 4.362,0.0601 4.362,0.39687 0,0.33418 -0.70338,0.40835 -4.45242,0.46951 -4.14308,0.0676 -4.44614,0.04 -4.362,-0.39687 z m 12.91546,-0.0726 c 0,-0.50779 0.17639,-0.52917 4.36563,-0.52917 4.18923,0 4.36562,0.0214 4.36562,0.52917 0,0.50779 -0.17639,0.52917 -4.36562,0.52917 -4.18924,0 -4.36563,-0.0214 -4.36563,-0.52917 z m 12.7,0 c 0,-0.50779 0.17639,-0.52917 4.36563,-0.52917 4.18923,0 4.36562,0.0214 4.36562,0.52917 0,0.50779 -0.17639,0.52917 -4.36562,0.52917 -4.18924,0 -4.36563,-0.0214 -4.36563,-0.52917 z M 99.02347,133.209 c -0.100484,-0.10049 -0.182701,-0.34433 -0.182701,-0.54188 0,-0.2911 0.839926,-0.34542 4.431771,-0.28663 3.73072,0.0611 4.43177,0.13532 4.43177,0.46942 0,0.33329 -0.68071,0.40848 -4.24907,0.46933 -2.33699,0.0399 -4.331284,-0.01 -4.43177,-0.11024 z m 12.7,0 c -0.10048,-0.10049 -0.1827,-0.34433 -0.1827,-0.54188 0,-0.2911 0.83992,-0.34542 4.43177,-0.28663 3.73072,0.0611 4.43177,0.13532 4.43177,0.46942 0,0.33329 -0.68071,0.40848 -4.24907,0.46933 -2.33699,0.0399 -4.33128,-0.01 -4.43177,-0.11024 z m 12.96473,1.5e-4 c -0.10056,-0.10057 -0.18285,-0.3416 -0.18285,-0.53563 0,-0.27979 0.90723,-0.35278 4.38503,-0.35278 4.03369,0 4.3779,0.0371 4.29613,0.46302 -0.0794,0.4135 -0.52882,0.47079 -4.20218,0.53563 -2.2623,0.0399 -4.19556,-0.01 -4.29613,-0.11024 z m 12.7,0 c -0.10056,-0.10057 -0.18285,-0.3416 -0.18285,-0.53563 0,-0.27979 0.90723,-0.35278 4.38503,-0.35278 4.03369,0 4.3779,0.0371 4.29613,0.46302 -0.0794,0.4135 -0.52882,0.47079 -4.20218,0.53563 -2.2623,0.0399 -4.19556,-0.01 -4.29613,-0.11024 z m 110.1484,27.68659 v -5.82083 H 205.46785 163.3991 v 5.82083 5.82083 h 42.06875 42.06875 z m 12.7,0 v -5.82083 h -5.68854 -5.68854 v 5.82083 5.82083 h 5.68854 5.68854 z M 80.849103,143.83012 v -9.92188 H 68.678269 56.507436 v 9.92188 9.92187 H 68.678269 80.849103 Z M 260.2366,141.31657 v -12.43541 h -26.9875 -26.9875 v 12.43541 12.43542 h 26.9875 26.9875 z m -98.16041,-0.13229 v -12.30312 h -5.68854 -5.68855 v 12.30312 12.30313 h 5.68855 5.68854 z M 43.210353,126.56605 c -0.0496,-1.12778 -0.09017,-0.20505 -0.09017,2.05052 0,2.25558 0.04058,3.17831 0.09017,2.05053 0.0496,-1.12779 0.0496,-2.97326 0,-4.10105 z m 37.63875,-8.13593 V 104.53949 H 62.328269 43.807435 v 13.89063 13.89062 h 18.520834 18.520834 z m -38.364584,-4.23334 v -9.3927 H 21.714727 0.94493489 v 9.3927 9.39271 H 21.714727 42.484519 Z m 0.727239,-5.35781 c -0.043,-2.72851 -0.07819,-0.49609 -0.07819,4.96094 0,5.45703 0.03518,7.68945 0.07819,4.96094 0.043,-2.72852 0.043,-7.19336 0,-9.92188 z"
       id="path3803"
       inkscape:connector-curvature="0" />
    <rect
       style="fill:#ffffff;stroke-width:0.26458332"
       id="rect8"
       width="41.539581"
       height="18.78541"
       x="0.9449349"
       y="104.80408" />
    <a
       id="a35"
       xlink:href="#geschichte">
      <g
         id="g33">
        <rect
           style="fill:#000080;stroke-width:0.26458332"
           id="rect16"
           width="53.974998"
           height="24.870831"
           x="206.2616"
           y="128.88116" />
        <text
           xml:space="preserve"
           style="font-style:normal;font-weight:normal;font-size:10.58333302px;line-height:1000;font-family:sans-serif;letter-spacing:0px;word-spacing:0px;fill:#000000;fill-opacity:1;stroke:none;stroke-width:0.26458332"
           x="208.22708"
           y="144.68056"
           id="text22"><tspan
             sodipodi:role="line"
             id="tspan20"
             x="208.22708"
             y="144.68056"
             style="font-size:8.81944466px;fill:#ffffff;stroke-width:0.26458332">Geschichte</tspan></text>
      </g>
    </a>
    <a
       id="a3750"
       xlink:href="#geographie-wirtschaft">
      <g
         id="g3748">
        <rect
           style="fill:#000080;stroke-width:0.26458332"
           id="rect18"
           width="46.302078"
           height="24.077082"
           x="213.93451"
           y="168.03914" />
        <text
           xml:space="preserve"
           style="font-style:normal;font-weight:normal;font-size:10.58333302px;line-height:0.80000001;font-family:sans-serif;text-align:center;letter-spacing:0px;word-spacing:0px;text-anchor:middle;fill:#000000;fill-opacity:1;stroke:none;stroke-width:0.26458332"
           x="236.40622"
           y="178.54724"
           id="text26"><tspan
             sodipodi:role="line"
             id="tspan24"
             x="236.40622"
             y="178.54724"
             style="font-size:7.05555534px;line-height:0.80000001;text-align:center;text-anchor:middle;fill:#ffffff;stroke-width:0.26458332">Geographie</tspan><tspan
             sodipodi:role="line"
             x="236.40622"
             y="187.0139"
             style="font-size:7.05555534px;line-height:0.80000001;text-align:center;text-anchor:middle;fill:#ffffff;stroke-width:0.26458332"
             id="tspan28">Wirtschaft</tspan></text>
      </g>
    </a>
    <a
       id="a3738"
       xlink:href="#religion-wr">
      <g
         id="g3736">
        <rect
           style="fill:#000080;stroke-width:0.26458332"
           id="rect14"
           width="37.041672"
           height="24.077082"
           x="69.472015"
           y="168.03949" />
        <text
           xml:space="preserve"
           style="font-style:normal;font-weight:normal;font-size:10.58333302px;line-height:1;font-family:sans-serif;letter-spacing:0px;word-spacing:0px;fill:#000000;fill-opacity:1;stroke:none;stroke-width:0.26458332"
           x="88.299545"
           y="178.01161"
           id="text3728"><tspan
             sodipodi:role="line"
             id="tspan3726"
             x="88.299545"
             y="178.01161"
             style="font-size:8.81944466px;line-height:1;text-align:center;text-anchor:middle;fill:#ffffff;stroke-width:0.26458332">Religion</tspan><tspan
             sodipodi:role="line"
             x="88.299545"
             y="188.59494"
             style="font-size:8.81944466px;line-height:1;text-align:center;text-anchor:middle;fill:#ffffff;stroke-width:0.26458332"
             id="tspan3730">WR</tspan></text>
      </g>
    </a>
    <a
       id="a3772"
       xlink:href="#chemie">
      <g
         id="g3770">
        <rect
           style="fill:#000080;stroke-width:0.26458332"
           id="rect12"
           width="41.539581"
           height="41.804161"
           x="0.9449349"
           y="124.91241" />
        <text
           xml:space="preserve"
           style="font-style:normal;font-weight:normal;font-size:10.58333302px;line-height:1000;font-family:sans-serif;letter-spacing:0px;word-spacing:0px;fill:#000000;fill-opacity:1;stroke:none;stroke-width:0.26458332"
           x="1.4646102"
           y="147.89034"
           id="text3747"><tspan
             sodipodi:role="line"
             id="tspan3745"
             x="1.4646102"
             y="147.89034"
             style="fill:#ffffff;stroke-width:0.26458332">Chemie</tspan></text>
      </g>
    </a>
    <a
       id="a3783"
       xlink:href="#deutsch">
      <g
         id="g3781">
        <rect
           style="fill:#000080;stroke-width:0.26458332"
           id="rect10"
           width="37.041672"
           height="27.78125"
           x="43.807434"
           y="104.53949" />
        <text
           xml:space="preserve"
           style="font-style:normal;font-weight:normal;font-size:10.58333302px;line-height:1000;font-family:sans-serif;letter-spacing:0px;word-spacing:0px;display:inline;fill:#000000;fill-opacity:1;stroke:none;stroke-width:0.26458332"
           x="43.992859"
           y="122.08874"
           id="text3747-3"><tspan
             sodipodi:role="line"
             id="tspan3745-6"
             x="43.992859"
             y="122.08874"
             style="font-size:8.81944466px;fill:#ffffff;stroke-width:0.26458332">Deutsch</tspan></text>
      </g>
    </a>
  </g>
</svg>
