<?xml version="1.0" encoding="UTF-8" standalone="no"?>
<!-- Created with Inkscape (http://www.inkscape.org/) -->

<svg
   xmlns:dc="http://purl.org/dc/elements/1.1/"
   xmlns:cc="http://creativecommons.org/ns#"
   xmlns:rdf="http://www.w3.org/1999/02/22-rdf-syntax-ns#"
   xmlns:svg="http://www.w3.org/2000/svg"
   xmlns="http://www.w3.org/2000/svg"
   xmlns:sodipodi="http://sodipodi.sourceforge.net/DTD/sodipodi-0.dtd"
   xmlns:inkscape="http://www.inkscape.org/namespaces/inkscape"
   width="1000"
   height="400"
   viewBox="0 0 264.58333 105.83333"
   version="1.1"
   id="svg8"
   inkscape:version="0.92.5 (2060ec1f9f, 2020-04-08)"
   sodipodi:docname="tp.stock.svg">
  <defs
     id="defs2" />
  <sodipodi:namedview
     id="base"
     pagecolor="#ffffff"
     bordercolor="#666666"
     borderopacity="1.0"
     inkscape:pageopacity="0.0"
     inkscape:pageshadow="2"
     inkscape:zoom="0.7"
     inkscape:cx="322.1245"
     inkscape:cy="154.14991"
     inkscape:document-units="px"
     inkscape:current-layer="layer1"
     showgrid="false"
     inkscape:window-width="1920"
     inkscape:window-height="989"
     inkscape:window-x="1680"
     inkscape:window-y="38"
     inkscape:window-maximized="1"
     units="px"
     inkscape:snap-text-baseline="false" />
  <metadata
     id="metadata5">
    <rdf:RDF>
      <cc:Work
         rdf:about="">
        <dc:format>image/svg+xml</dc:format>
        <dc:type
           rdf:resource="http://purl.org/dc/dcmitype/StillImage" />
        <dc:title></dc:title>
      </cc:Work>
    </rdf:RDF>
  </metadata>
  <g
     inkscape:label="Ebene 1"
     inkscape:groupmode="layer"
     id="layer1"
     transform="translate(0,-93.880564)"
     style="display:inline">
    <path
       style="fill:#000000;stroke-width:0.26458332"
       d="M -0.03779836,148.70602 V 103.72686 H 41.237201 82.5122 v 25.13541 25.13542 h 5.686049 5.686046 l 0.06864,-13.03073 0.06864,-13.03073 34.858855,-0.0671 34.85885,-0.0671 v 13.09785 13.09785 h 8.86354 8.86354 v -25.26771 -25.26771 h 40.21667 40.21667 v 45.11146 45.11146 H 130.93095 -0.03779836 Z M 99.11456,174.30446 c -0.04188,-3.38336 -0.07614,-0.61516 -0.07614,6.15156 0,6.76672 0.03426,9.53492 0.07614,6.15156 0.04188,-3.38336 0.04188,-8.91976 0,-12.30312 z M 55.5247,180.32373 V 168.28519 H 28.404909 1.2851183 v 12.03854 12.03854 H 28.404909 55.5247 Z m 42.862499,0 V 168.28519 H 77.617408 56.847617 v 12.03854 12.03854 h 20.769791 20.769791 z m 72.231251,0 V 168.28519 H 135.16428 99.710116 v 12.03854 12.03854 h 35.454164 35.45417 z m 43.39166,0 v -12.03854 h -20.90208 -20.90208 v 12.03854 12.03854 h 20.90208 20.90208 z m 46.56667,0 V 168.28519 H 237.9549 215.33303 v 12.03854 12.03854 h 22.62187 22.62188 z M 146.32235,167.55761 c -9.50655,-0.0385 -24.98467,-0.0385 -34.39583,10e-6 -9.41116,0.0385 -1.63307,0.07 17.28464,0.07 18.9177,-1e-5 26.61774,-0.0315 17.11119,-0.07 z m 25.54736,0.0386 c -0.0879,-0.0879 -0.31613,-0.0973 -0.50712,-0.0209 -0.21107,0.0845 -0.14838,0.14716 0.15985,0.15985 0.27891,0.0115 0.43519,-0.051 0.34727,-0.13896 z m 43.12708,0 c -0.0879,-0.0879 -0.31613,-0.0973 -0.50712,-0.0209 -0.21107,0.0845 -0.14837,0.14716 0.15985,0.15985 0.27892,0.0115 0.43519,-0.051 0.34727,-0.13896 z m 33.86666,0 c -0.0879,-0.0879 -0.31612,-0.0973 -0.50711,-0.0209 -0.21107,0.0845 -0.14838,0.14716 0.15985,0.15985 0.27891,0.0115 0.43518,-0.051 0.34726,-0.13896 z M 42.824701,146.06019 V 125.15811 H 22.054909 1.2851183 v 20.90208 20.90208 H 22.054909 42.824701 Z m 51.064582,15.08299 v -5.8191 l -19.116146,-0.0679 -19.116145,-0.0679 -0.06915,-10.64948 -0.06915,-10.64947 h -5.685539 -5.685541 v 16.53645 16.53646 H 69.01845 93.889283 Z m 68.527077,0.003 v -5.81604 l -6.28385,-0.0709 -6.28385,-0.0709 -0.0686,-13.03073 -0.0686,-13.03072 H 122.46179 95.212199 v 18.9177 18.91771 h 33.602081 33.60208 v -5.81604 z m -37.70312,-6.35478 c -0.40855,-0.66105 0.34604,-0.79375 4.51353,-0.79375 4.17362,0 4.35001,0.0215 4.35001,0.52916 0,0.50771 -0.17639,0.52917 -4.35001,0.52917 -2.6146,0 -4.41525,-0.10555 -4.51353,-0.26458 z m 12.7,0 c -0.40855,-0.66105 0.34604,-0.79375 4.51353,-0.79375 4.17362,0 4.35001,0.0215 4.35001,0.52916 0,0.50771 -0.17639,0.52917 -4.35001,0.52917 -2.6146,0 -4.41525,-0.10555 -4.51353,-0.26458 z m -12.7,-4.23334 c -0.40855,-0.66104 0.34604,-0.79375 4.51353,-0.79375 4.17362,0 4.35001,0.0215 4.35001,0.52917 0,0.50771 -0.17639,0.52917 -4.35001,0.52917 -2.6146,0 -4.41525,-0.10555 -4.51353,-0.26459 z m 9.3815,-1.5755 c -0.60125,-1.01205 -1.0181,-1.96157 -0.92633,-2.11006 0.11018,-0.17827 -1.29748,-0.29468 -4.14416,-0.34272 -3.62328,-0.0611 -4.31101,-0.13607 -4.31101,-0.46963 0,-0.33361 0.68903,-0.40848 4.32251,-0.46969 4.14899,-0.0699 4.32813,-0.0513 4.46262,0.46302 0.39641,1.51585 0.60758,0.0567 0.60758,-4.19836 0,-5.11096 -0.016,-5.05539 1.45521,-5.05539 1.4712,0 1.4552,-0.0556 1.4552,5.05539 0,2.60381 0.10584,4.73419 0.23519,4.73419 0.12935,0 0.21865,-0.20835 0.19844,-0.46302 -0.0336,-0.42373 0.33335,-0.46302 4.32525,-0.46302 3.94393,0 4.37055,0.0444 4.45117,0.46302 0.082,0.42553 -0.2565,0.46302 -4.17918,0.46302 -2.90224,0 -4.21362,0.0885 -4.09737,0.27665 0.22805,0.369 -1.95469,3.95669 -2.40724,3.95669 -0.19509,0 -0.84664,-0.82804 -1.44788,-1.84009 z m 2.12417,-1.29081 c -0.15881,-0.0537 -0.26088,-1.99463 -0.26088,-4.96094 0,-4.15494 -0.0585,-4.87274 -0.39687,-4.87274 -0.33848,0 -0.39688,0.72025 -0.39688,4.89479 0,3.26142 -0.0933,4.89479 -0.27954,4.89479 -0.15486,0 -0.0724,0.35067 0.18488,0.78619 l 0.46441,0.7862 0.47288,-0.72005 c 0.26008,-0.39603 0.35548,-0.75974 0.212,-0.80824 z m -0.33254,-10.25812 c -0.0879,-0.0879 -0.31612,-0.0973 -0.50711,-0.0209 -0.21107,0.0845 -0.14838,0.14716 0.15985,0.15985 0.27891,0.0115 0.43518,-0.051 0.34726,-0.13896 z m 1.52687,13.12443 c -0.40855,-0.66104 0.34604,-0.79375 4.51353,-0.79375 4.17362,0 4.35001,0.0215 4.35001,0.52917 0,0.50771 -0.17639,0.52917 -4.35001,0.52917 -2.6146,0 -4.41525,-0.10555 -4.51353,-0.26459 z m -12.71828,-8.76083 c -0.37465,-0.60619 0.66041,-0.76165 4.64514,-0.69767 3.66168,0.0588 4.10715,0.11506 4.18659,0.52882 0.0818,0.42587 -0.2617,0.46302 -4.28052,0.46302 -2.92046,0 -4.4297,-0.0976 -4.55121,-0.29417 z m 12.90094,-0.16885 c 0.0805,-0.41793 0.50077,-0.46302 4.31526,-0.46302 3.81448,0 4.23477,0.0451 4.31525,0.46302 0.082,0.426 -0.26298,0.46302 -4.31525,0.46302 -4.05227,0 -4.3973,-0.037 -4.31526,-0.46302 z m -12.89691,-4.05795 c -0.39761,-0.64336 0.48333,-0.78175 4.529,-0.71151 3.76507,0.0654 4.21919,0.12202 4.2987,0.53612 0.0818,0.42587 -0.2617,0.46303 -4.28052,0.46303 -2.861,0 -4.43078,-0.0993 -4.54718,-0.28764 z m 12.7,0 c -0.39761,-0.64336 0.48333,-0.78175 4.529,-0.71151 3.76507,0.0654 4.21919,0.12202 4.2987,0.53612 0.0818,0.42587 -0.2617,0.46303 -4.28052,0.46303 -2.861,0 -4.43078,-0.0993 -4.54718,-0.28764 z m -12.68176,-4.20382 c -0.41317,-0.66853 0.33212,-0.80021 4.52894,-0.80021 4.01883,0 4.36228,0.0371 4.2805,0.46302 -0.0796,0.41455 -0.53658,0.47062 -4.36542,0.53563 -2.71217,0.046 -4.33778,-0.0265 -4.44402,-0.19844 z m 12.7,0 c -0.41317,-0.66853 0.33212,-0.80021 4.52894,-0.80021 4.01883,0 4.36228,0.0371 4.2805,0.46302 -0.0796,0.41455 -0.53658,0.47062 -4.36542,0.53563 -2.71217,0.046 -4.33778,-0.0265 -4.44402,-0.19844 z m 110.45955,27.77479 v -5.82084 h -42.06875 -42.06875 v 5.82084 5.82083 h 42.06875 42.06875 z m 12.7,0 v -5.82084 h -5.68854 -5.68854 v 5.82084 5.82083 h 5.68854 5.68854 z m -19.26921,-6.54842 c -10.96186,-0.0382 -28.82123,-0.0382 -39.68749,10e-6 -10.86626,0.0383 -1.89747,0.0695 19.93066,0.0695 21.82812,0 30.7187,-0.0313 19.75683,-0.0695 z M 56.251958,138.85029 c -0.04286,-2.80127 -0.07792,-0.50932 -0.07792,5.09323 0,5.60255 0.03506,7.89451 0.07792,5.09323 0.04285,-2.80128 0.04285,-7.38518 0,-10.18646 z m 24.937325,5.09323 V 133.88936 H 69.01845 56.847617 v 10.05416 10.05417 H 69.01845 81.189283 Z m 0.727257,-5.09323 c -0.04285,-2.80127 -0.07792,-0.50932 -0.07792,5.09323 0,5.60255 0.03507,7.89451 0.07792,5.09323 0.04286,-2.80128 0.04286,-7.38518 0,-10.18646 z m 80.49982,2.71198 v -12.43541 h -5.68854 -5.68854 v 12.43541 12.43542 h 5.68854 5.68854 z m 98.16042,-12.17083 v -24.60625 h -38.89375 -38.89375 v 24.60625 24.60625 h 38.89375 38.89375 z M 81.189283,118.80811 V 105.04977 H 62.66845 44.147617 v 13.75834 13.75833 H 62.66845 81.189283 Z m -38.364582,-4.36563 v -9.39271 H 22.054909 1.2851183 v 9.39271 9.39271 H 22.054909 42.824701 Z"
       id="path3835"
       inkscape:connector-curvature="0" />
  </g>
</svg>
